<?xml version="1.0" encoding="UTF-8" standalone="no"?>
<!-- Created with Inkscape (http://www.inkscape.org/) -->

<svg
   xmlns:dc="http://purl.org/dc/elements/1.1/"
   xmlns:cc="http://creativecommons.org/ns#"
   xmlns:rdf="http://www.w3.org/1999/02/22-rdf-syntax-ns#"
   xmlns:svg="http://www.w3.org/2000/svg"
   xmlns="http://www.w3.org/2000/svg"
   xmlns:xlink="http://www.w3.org/1999/xlink"
   xmlns:sodipodi="http://sodipodi.sourceforge.net/DTD/sodipodi-0.dtd"
   xmlns:inkscape="http://www.inkscape.org/namespaces/inkscape"
   width="720"
   height="1280"
   id="svg7774"
   version="1.1"
   inkscape:version="0.48.2 r9819"
   sodipodi:docname="board_screen.svg">
  <defs
     id="defs7776">
    <linearGradient
       id="linearGradient10025">
      <stop
         style="stop-color:#ffffff;stop-opacity:1;"
         offset="0"
         id="stop10027" />
      <stop
         style="stop-color:#c8c8c8;stop-opacity:0;"
         offset="1"
         id="stop10029" />
    </linearGradient>
    <linearGradient
       id="linearGradient8909">
      <stop
         style="stop-color:#6f2291;stop-opacity:1;"
         offset="0"
         id="stop8911" />
      <stop
         id="stop8917"
         offset="0.6988641"
         style="stop-color:#6f7c91;stop-opacity:0.49803922;" />
      <stop
         style="stop-color:#6f7c91;stop-opacity:0;"
         offset="1"
         id="stop8913" />
    </linearGradient>
    <filter
       inkscape:collect="always"
       id="filter8809">
      <feGaussianBlur
         inkscape:collect="always"
         stdDeviation="2"
         id="feGaussianBlur8811" />
    </filter>
    <filter
       inkscape:collect="always"
       id="filter8879"
       x="-0.1128"
       width="1.2256"
       y="-0.1128"
       height="1.2256">
      <feGaussianBlur
         inkscape:collect="always"
         stdDeviation="10.63375"
         id="feGaussianBlur8881" />
    </filter>
    <linearGradient
       inkscape:collect="always"
       xlink:href="#linearGradient8909"
       id="linearGradient8915"
       x1="-460.40817"
       y1="306.93878"
       x2="-333.06122"
       y2="435.91837"
       gradientUnits="userSpaceOnUse" />
    <filter
       id="filter9005"
       inkscape:menu-tooltip="Partly opaque water color effect with bleed"
       inkscape:menu="Textures"
       inkscape:label="Gouache"
       color-interpolation-filters="sRGB">
      <feGaussianBlur
         id="feGaussianBlur9007"
         stdDeviation="3"
         result="result5"
         in="SourceGraphic" />
      <feTurbulence
         id="feTurbulence9009"
         result="result1"
         baseFrequency="0.02"
         type="fractalNoise"
         seed="0"
         numOctaves="3" />
      <feDisplacementMap
         id="feDisplacementMap9011"
         in2="result1"
         result="result3"
         in="SourceGraphic"
         xChannelSelector="R"
         yChannelSelector="G"
         scale="30" />
      <feComposite
         id="feComposite9013"
         in2="result1"
         result="result4"
         in="result3"
         operator="out" />
      <feComposite
         id="feComposite9015"
         in2="result4"
         result="result6"
         operator="arithmetic"
         k2="1"
         k1="0.3"
         k3="0.3" />
      <feComposite
         id="feComposite9017"
         in2="result5"
         in="result6"
         operator="over" />
    </filter>
    <filter
       inkscape:collect="always"
       id="filter9361"
       y="-0.15"
       height="1.3"
       x="-0.15"
       width="1.3"
       inkscape:menu-tooltip="Aquarelle paper effect which can be used for pictures as for objects"
       inkscape:menu="Textures"
       inkscape:label="Rough paper"
       color-interpolation-filters="sRGB">
      <feGaussianBlur
         inkscape:collect="always"
         stdDeviation="7"
         id="feGaussianBlur9363"
         result="fbSourceGraphic" />
      <feColorMatrix
         result="fbSourceGraphicAlpha"
         in="fbSourceGraphic"
         values="0 0 0 -1 0 0 0 0 -1 0 0 0 0 -1 0 0 0 0 1 0"
         id="feColorMatrix9407" />
      <feTurbulence
         id="feTurbulence9409"
         type="fractalNoise"
         baseFrequency="0.04"
         numOctaves="5"
         seed="0"
         result="result4"
         in="fbSourceGraphic" />
      <feDisplacementMap
         id="feDisplacementMap9411"
         in2="result4"
         in="fbSourceGraphic"
         yChannelSelector="G"
         xChannelSelector="R"
         scale="10"
         result="result3" />
      <feDiffuseLighting
         id="feDiffuseLighting9413"
         lighting-color="rgb(233,230,215)"
         diffuseConstant="1"
         surfaceScale="2"
         result="result1"
         in="result4">
        <feDistantLight
           id="feDistantLight9415"
           azimuth="235"
           elevation="40" />
      </feDiffuseLighting>
      <feComposite
         id="feComposite9417"
         in2="result1"
         operator="in"
         in="result3"
         result="result2" />
      <feComposite
         id="feComposite9419"
         in2="result1"
         result="result5"
         operator="arithmetic"
         k1="1.7" />
      <feBlend
         id="feBlend9421"
         in2="result3"
         in="result5"
         mode="normal" />
    </filter>
    <filter
       id="filter9451"
       inkscape:menu-tooltip="Colorized mountain tops out of the fog"
       inkscape:menu="Overlays"
       inkscape:label="Scotland"
       color-interpolation-filters="sRGB">
      <feTurbulence
         id="feTurbulence9453"
         baseFrequency="0.03 0.1"
         numOctaves="5"
         type="fractalNoise"
         result="result91" />
      <feDisplacementMap
         id="feDisplacementMap9455"
         in2="result91"
         scale="5" />
      <feColorMatrix
         id="feColorMatrix9457"
         values="1 0 0 0 0 0 1 0 0 0 0 0 1 0 0 0 0 0 3 -1 "
         result="result5" />
      <feComposite
         id="feComposite9459"
         in2="result5"
         operator="in"
         in="SourceGraphic"
         result="result6" />
      <feTurbulence
         id="feTurbulence9461"
         baseFrequency="0.03 0.1"
         numOctaves="5"
         type="fractalNoise"
         result="result92" />
      <feDisplacementMap
         id="feDisplacementMap9463"
         in2="result92"
         result="result4"
         scale="4"
         yChannelSelector="A"
         xChannelSelector="R"
         in="result6" />
      <feComposite
         id="feComposite9465"
         in2="result4"
         operator="in"
         result="result2"
         in="result4" />
      <feComposite
         id="feComposite9467"
         in2="result2"
         operator="over"
         in="result2"
         result="result93" />
      <feBlend
         id="feBlend9469"
         in2="result93"
         mode="multiply" />
    </filter>
    <filter
       id="filter9719"
       inkscape:label="Clouds"
       x="0"
       y="0"
       width="1"
       height="1"
       inkscape:menu="Overlays"
       inkscape:menu-tooltip="Airy, fluffy, sparse white clouds"
       color-interpolation-filters="sRGB">
      <feTurbulence
         id="feTurbulence9721"
         numOctaves="3"
         baseFrequency="0.040 0.107"
         type="fractalNoise" />
      <feColorMatrix
         id="feColorMatrix9723"
         result="result0"
         values="1 0 0 0 0 0 1 0 0 0 0 0 1 0 0 0 0 0 5 -2.7" />
      <feFlood
         id="feFlood9725"
         flood-opacity="1"
         flood-color="rgb(255,255,255)"
         result="result1" />
      <feComposite
         id="feComposite9727"
         in2="result0"
         operator="in"
         result="result2" />
      <feComposite
         id="feComposite9729"
         in2="SourceGraphic"
         operator="atop" />
    </filter>
    <filter
       inkscape:collect="always"
       id="filter9901">
      <feGaussianBlur
         inkscape:collect="always"
         stdDeviation="1.995"
         id="feGaussianBlur9903" />
    </filter>
    <filter
       inkscape:collect="always"
       id="filter10009"
       x="-0.1608"
       width="1.3216"
       y="-0.1608"
       height="1.3216">
      <feGaussianBlur
         inkscape:collect="always"
         stdDeviation="14.74"
         id="feGaussianBlur10011" />
    </filter>
    <radialGradient
       inkscape:collect="always"
       xlink:href="#linearGradient10025"
       id="radialGradient10031"
       cx="-444.36832"
       cy="644.1701"
       fx="-444.36832"
       fy="644.1701"
       r="102.288"
       gradientUnits="userSpaceOnUse"
       gradientTransform="matrix(1.173158,0.9776317,-0.6401844,0.76822128,490.65108,598.51252)" />
    <filter
       inkscape:collect="always"
       id="filter10053">
      <feGaussianBlur
         inkscape:collect="always"
         stdDeviation="1.9"
         id="feGaussianBlur10055" />
    </filter>
    <radialGradient
       inkscape:collect="always"
       xlink:href="#linearGradient10025"
       id="radialGradient10062"
       gradientUnits="userSpaceOnUse"
       gradientTransform="matrix(1.173158,0.9776317,-0.6401844,0.76822128,490.65108,598.51252)"
       cx="-444.36832"
       cy="644.1701"
       fx="-444.36832"
       fy="644.1701"
       r="102.288" />
  </defs>
  <sodipodi:namedview
     id="base"
     pagecolor="#ffffff"
     bordercolor="#666666"
     borderopacity="1.0"
     inkscape:pageopacity="0.0"
     inkscape:pageshadow="2"
     inkscape:zoom="1.4"
     inkscape:cx="-367.07221"
     inkscape:cy="440"
     inkscape:document-units="px"
     inkscape:current-layer="layer8"
     showgrid="false"
     inkscape:window-width="1680"
     inkscape:window-height="1002"
     inkscape:window-x="0"
     inkscape:window-y="0"
     inkscape:window-maximized="1">
    <inkscape:grid
       type="xygrid"
       id="grid7782"
       empspacing="5"
       visible="true"
       enabled="true"
       snapvisiblegridlinesonly="true"
       spacingx="20px"
       spacingy="20px" />
  </sodipodi:namedview>
  <metadata
     id="metadata7779">
    <rdf:RDF>
      <cc:Work
         rdf:about="">
        <dc:format>image/svg+xml</dc:format>
        <dc:type
           rdf:resource="http://purl.org/dc/dcmitype/StillImage" />
        <dc:title></dc:title>
      </cc:Work>
    </rdf:RDF>
  </metadata>
  <g
     inkscape:label="Header"
     inkscape:groupmode="layer"
     id="layer1"
     transform="translate(0,227.63782)"
     style="display:inline">
    <rect
       style="fill:#c8beb7;fill-opacity:1;stroke:#ffbf7f;stroke-width:0.9;stroke-miterlimit:4;stroke-opacity:1;stroke-dasharray:none"
       id="rect7786"
       width="720"
       height="120"
       x="0"
       y="0"
       transform="translate(0,-227.63782)" />
    <text
       xml:space="preserve"
       style="font-size:36px;font-style:normal;font-weight:normal;line-height:125%;letter-spacing:0px;word-spacing:0px;fill:#000000;fill-opacity:1;stroke:none;font-family:Sans"
       x="316"
       y="-191.63782"
       id="text8731"
       sodipodi:linespacing="125%"><tspan
         sodipodi:role="line"
         id="tspan8733"
         x="316"
         y="-191.63782">PiGuy (1)</tspan></text>
  </g>
  <g
     inkscape:groupmode="layer"
     id="layer3"
     inkscape:label="Header_Lines">
    <path
       style="fill:#ff2a7f;stroke:#ff2a7f;stroke-width:16.27999878;stroke-linecap:butt;stroke-linejoin:miter;stroke-miterlimit:4;stroke-opacity:1;stroke-dasharray:none"
       d="M 100,160 C 180,-40 180,-40 180,-40"
       id="path8685"
       inkscape:connector-curvature="0"
       sodipodi:nodetypes="cc" />
    <path
       sodipodi:nodetypes="cc"
       inkscape:connector-curvature="0"
       id="path8721"
       d="M 128,160 C 208,-40 208,-40 208,-40"
       style="fill:#ff2a7f;stroke:#ff2a7f;stroke-width:16.27999878;stroke-linecap:butt;stroke-linejoin:miter;stroke-miterlimit:4;stroke-opacity:1;stroke-dasharray:none" />
    <text
       xml:space="preserve"
       style="font-size:40px;font-style:normal;font-weight:normal;line-height:125%;letter-spacing:0px;word-spacing:0px;fill:#000000;fill-opacity:1;stroke:none;font-family:Sans"
       x="282.44897"
       y="22.857143"
       id="text8723"
       sodipodi:linespacing="125%"><tspan
         sodipodi:role="line"
         id="tspan8725"></tspan></text>
  </g>
  <g
     inkscape:groupmode="layer"
     id="layer4"
     inkscape:label="Background">
    <rect
       style="fill:#ffffff;fill-opacity:1;stroke:none;stroke-width:10.89999961999999911;stroke-linecap:butt;stroke-linejoin:miter;stroke-miterlimit:4;stroke-opacity:1;stroke-dasharray:none"
       id="rect8717"
       width="720"
       height="1160"
       x="0"
       y="120" />
    <rect
       style="fill:#ffffff;fill-opacity:1;stroke:none"
       id="rect8719"
       width="720"
       height="120"
       x="0"
       y="-120" />
    <text
       xml:space="preserve"
       style="font-size:28px;font-style:normal;font-weight:normal;line-height:125%;letter-spacing:0px;word-spacing:0px;fill:#000000;fill-opacity:1;stroke:none;font-family:Sans"
       x="386"
       y="68"
       id="text8735"
       sodipodi:linespacing="125%"><tspan
         sodipodi:role="line"
         id="tspan8737"
         x="386"
         y="68">vs.</tspan></text>
    <text
       xml:space="preserve"
       style="font-size:36px;font-style:normal;font-weight:normal;line-height:125%;letter-spacing:0px;word-spacing:0px;fill:#000000;fill-opacity:1;stroke:none;font-family:Sans"
       x="332"
       y="108"
       id="text8739"
       sodipodi:linespacing="125%"><tspan
         sodipodi:role="line"
         id="tspan8741"
         x="332"
         y="108">mull (1)</tspan></text>
  </g>
  <g
     inkscape:groupmode="layer"
     id="layer5"
     inkscape:label="Grid">
    <path
       style="fill:none;stroke:#000000;stroke-width:1px;stroke-linecap:butt;stroke-linejoin:miter;stroke-opacity:1"
       d="m 100,120 c 0,860 0,860 0,860"
       id="path8752"
       inkscape:connector-curvature="0" />
    <path
       style="fill:none;stroke:#000000;stroke-width:1px;stroke-linecap:butt;stroke-linejoin:miter;stroke-opacity:1"
       d="m 200,980 c 0,-860 0,-860 0,-860 l 0,0 0,0"
       id="path8754"
       inkscape:connector-curvature="0" />
    <path
       style="fill:none;stroke:#000000;stroke-width:1px;stroke-linecap:butt;stroke-linejoin:miter;stroke-opacity:1"
       d="m 300,120 c 0,860 0,860 0,860"
       id="path8756"
       inkscape:connector-curvature="0" />
    <path
       style="fill:none;stroke:#000000;stroke-width:1px;stroke-linecap:butt;stroke-linejoin:miter;stroke-opacity:1"
       d="m 400,980 c 0,-860 0,-860 0,-860"
       id="path8758"
       inkscape:connector-curvature="0" />
    <path
       style="fill:none;stroke:#000000;stroke-width:1px;stroke-linecap:butt;stroke-linejoin:miter;stroke-opacity:1"
       d="m 500,120 c 0,860 0,860 0,860 l 0,0 0,0 0,0 0,0 0,0"
       id="path8760"
       inkscape:connector-curvature="0" />
    <path
       style="fill:none;stroke:#000000;stroke-width:1px;stroke-linecap:butt;stroke-linejoin:miter;stroke-opacity:1"
       d="m 600,980 c 0,-860 0,-860 0,-860 l 0,0 0,0"
       id="path8762"
       inkscape:connector-curvature="0" />
    <path
       style="fill:none;stroke:#000000;stroke-width:1px;stroke-linecap:butt;stroke-linejoin:miter;stroke-opacity:1"
       d="m 0,120 c 0,860 0,860 0,860 l 0,0 0,0 0,0 c 720,0 720,0 720,0 0,-860 0,-860 0,-860"
       id="path8764"
       inkscape:connector-curvature="0" />
    <path
       style="fill:none;stroke:#000000;stroke-width:1px;stroke-linecap:butt;stroke-linejoin:miter;stroke-opacity:1"
       d="m 0,880 c 720,0 720,0 720,0"
       id="path8766"
       inkscape:connector-curvature="0" />
    <path
       style="fill:none;stroke:#000000;stroke-width:1px;stroke-linecap:butt;stroke-linejoin:miter;stroke-opacity:1"
       d="M 720,780 C 0,780 0,780 0,780"
       id="path8768"
       inkscape:connector-curvature="0" />
    <path
       style="fill:none;stroke:#000000;stroke-width:1px;stroke-linecap:butt;stroke-linejoin:miter;stroke-opacity:1"
       d="m 0,680 c 720,0 720,0 720,0"
       id="path8770"
       inkscape:connector-curvature="0" />
    <path
       style="fill:none;stroke:#000000;stroke-width:1px;stroke-linecap:butt;stroke-linejoin:miter;stroke-opacity:1"
       d="M 720,580 C 0,580 0,580 0,580"
       id="path8772"
       inkscape:connector-curvature="0" />
    <path
       style="fill:none;stroke:#000000;stroke-width:1px;stroke-linecap:butt;stroke-linejoin:miter;stroke-opacity:1"
       d="m 0,480 c 720,0 720,0 720,0"
       id="path8774"
       inkscape:connector-curvature="0" />
    <path
       style="fill:none;stroke:#000000;stroke-width:1px;stroke-linecap:butt;stroke-linejoin:miter;stroke-opacity:1"
       d="M 720,380 C 0,380 0,380 0,380"
       id="path8776"
       inkscape:connector-curvature="0" />
    <path
       style="fill:none;stroke:#000000;stroke-width:1px;stroke-linecap:butt;stroke-linejoin:miter;stroke-opacity:1"
       d="m 0,280 c 720,0 720,0 720,0"
       id="path8778"
       inkscape:connector-curvature="0" />
    <path
       style="fill:none;stroke:#000000;stroke-width:1px;stroke-linecap:butt;stroke-linejoin:miter;stroke-opacity:1"
       d="M 720,180 C 0,180 0,180 0,180"
       id="path8780"
       inkscape:connector-curvature="0" />
  </g>
  <g
     inkscape:groupmode="layer"
     id="layer2"
     inkscape:label="Header_Back_Button">
    <path
       sodipodi:type="arc"
       style="fill:#ffcc00;fill-opacity:1;stroke:#ffff80;stroke-width:2.17524695;stroke-miterlimit:4;stroke-opacity:1;stroke-dasharray:none"
       id="path8297"
       sodipodi:cx="70"
       sodipodi:cy="60"
       sodipodi:rx="70"
       sodipodi:ry="60"
       d="M 140,60 A 70,60 0 1 1 0,60 70,60 0 1 1 140,60 z"
       transform="matrix(0.70811608,0,0,0.83363543,8,10)" />
    <rect
       style="fill:#ff7f2a;fill-opacity:1;stroke:#ffff80;stroke-width:2;stroke-miterlimit:4;stroke-opacity:1;stroke-dasharray:none"
       id="rect8318"
       width="80"
       height="20"
       x="20"
       y="50"
       ry="10" />
    <rect
       ry="10"
       y="56.497421"
       x="-14.143594"
       height="20"
       width="48"
       id="rect8320"
       style="fill:#ff7f2a;fill-opacity:1;stroke:#ffff80;stroke-width:1.54919338;stroke-miterlimit:4;stroke-opacity:1;stroke-dasharray:none"
       transform="matrix(0.8660254,-0.5,0.5,0.8660254,0,0)" />
    <rect
       transform="matrix(0.8660254,0.5,-0.5,0.8660254,0,0)"
       style="fill:#ff7f2a;fill-opacity:1;stroke:#ffff80;stroke-width:1.54919337999999995;stroke-miterlimit:4;stroke-opacity:1;stroke-dasharray:none;stroke-linecap:butt;stroke-linejoin:miter"
       id="rect8322"
       width="48"
       height="20"
       x="45.516659"
       y="26.837162"
       ry="10" />
  </g>
  <g
     inkscape:groupmode="layer"
     id="layer6"
     inkscape:label="Planet-Glow"
     style="display:inline">
    <path
       sodipodi:type="arc"
       style="fill:none;stroke:#e4912c;stroke-width:5;stroke-linecap:butt;stroke-linejoin:miter;stroke-miterlimit:4;stroke-opacity:1;stroke-dasharray:none"
       id="path10045"
       sodipodi:cx="-409.32202"
       sodipodi:cy="384.23727"
       sodipodi:rx="207.62712"
       sodipodi:ry="33.050846"
       d="m -201.6949,384.23727 a 207.62712,33.050846 0 1 1 -415.25424,0 207.62712,33.050846 0 1 1 415.25424,0 z"
       transform="matrix(0.98480776,-0.17364818,0.17364818,0.98480776,-64.983954,-65.233602)" />
    <path
       sodipodi:type="arc"
       style="fill:none;stroke:#cea62c;stroke-width:5;stroke-miterlimit:4;stroke-opacity:1;stroke-dasharray:none"
       id="path10033"
       sodipodi:cx="-402.54236"
       sodipodi:cy="382.54236"
       sodipodi:rx="160.16949"
       sodipodi:ry="27.966103"
       d="m -242.37286,382.54236 a 160.16949,27.966103 0 1 1 -320.33899,0 160.16949,27.966103 0 1 1 320.33899,0 z"
       transform="matrix(0.98480776,-0.17364818,0.17364818,0.98480776,-72.862416,-63.844416)" />
    <path
       sodipodi:type="inkscape:offset"
       inkscape:radius="13.128373"
       inkscape:original="M -400 280 C -455.22847 280 -500 324.77153 -500 380 C -500 435.22847 -455.22847 480 -400 480 C -344.77153 480 -300 435.22847 -300 380 C -300 324.77153 -344.77153 280 -400 280 z "
       xlink:href="#path8783"
       style="fill:#6f7c91;fill-opacity:1;stroke:#5500cc;stroke-width:2.4000001;stroke-miterlimit:4;stroke-opacity:1;stroke-dasharray:none;filter:url(#filter8879)"
       id="path8813"
       inkscape:href="#path8783"
       d="m -400,266.875 c -62.32357,0 -113.125,50.80143 -113.125,113.125 0,62.32357 50.80143,113.125 113.125,113.125 62.32357,0 113.125,-50.80143 113.125,-113.125 0,-62.32357 -50.80143,-113.125 -113.125,-113.125 z" />
    <path
       sodipodi:type="arc"
       style="fill:#6f7c91;fill-opacity:1;stroke:#5500cc;stroke-width:0.89999998;stroke-miterlimit:4;stroke-opacity:1;stroke-dasharray:none;filter:url(#filter8809)"
       id="path8783"
       sodipodi:cx="-400"
       sodipodi:cy="380"
       sodipodi:rx="100"
       sodipodi:ry="100"
       d="m -300,380 a 100,100 0 1 1 -200,0 100,100 0 1 1 200,0 z" />
    <path
       d="m -300,380 a 100,100 0 1 1 -200,0 100,100 0 1 1 200,0 z"
       sodipodi:ry="100"
       sodipodi:rx="100"
       sodipodi:cy="380"
       sodipodi:cx="-400"
       id="path8891"
       style="fill:url(#linearGradient8915);fill-opacity:1;stroke:#5500cc;stroke-width:0.89999998;stroke-miterlimit:4;stroke-opacity:1;stroke-dasharray:none;filter:url(#filter8809)"
       sodipodi:type="arc" />
    <path
       d="m -600,380 a 100,100 0 1 1 -200,0 100,100 0 1 1 200,0 z"
       sodipodi:ry="100"
       sodipodi:rx="100"
       sodipodi:cy="380"
       sodipodi:cx="-700"
       id="path9061"
       style="fill:#a05a2c;fill-opacity:1;stroke:#550027;stroke-width:0.89999998;stroke-linecap:butt;stroke-linejoin:miter;stroke-miterlimit:4;stroke-opacity:1;stroke-dasharray:none"
       sodipodi:type="arc"
       transform="translate(0,-240)" />
    <path
       inkscape:connector-curvature="0"
       id="path9063"
       d="m -727.8033,223.75631 c 0,-0.48418 -0.59914,-0.65042 -1.33141,-0.36942 -0.73228,0.28101 -1.83719,0.0912 -2.45535,-0.42187 -0.77134,-0.64016 -1.44489,-0.67081 -2.147,-0.0977 -0.74107,0.60491 -1.61191,0.1874 -3.15939,-1.51469 -2.3456,-2.57996 -2.16775,-4.02796 0.22839,-1.85947 2.88859,2.61414 1.4673,0.14462 -1.55995,-2.71045 -4.27918,-4.03578 -5.76046,-4.71948 -7.37752,-3.40517 -1.13866,0.92548 -1.25514,0.88365 -0.81478,-0.29259 0.2826,-0.75484 0.005,-1.79461 -0.61656,-2.31058 -0.62171,-0.51597 -0.97199,-1.37158 -0.7784,-1.90135 0.19359,-0.52977 0.0187,-1.48706 -0.38872,-2.1273 -0.60515,-0.95106 -1.26674,-0.7264 -3.61534,1.22767 -1.58105,1.31547 -2.90123,2.85213 -2.93373,3.41482 -0.0845,1.46231 -2.24592,1.26643 -2.83032,-0.25649 -0.27005,-0.70375 -0.79868,-1.08939 -1.17473,-0.85699 -0.37605,0.23242 -1.31881,-1.01689 -2.09503,-2.77622 -0.77622,-1.75934 -2.58888,-4.16291 -4.02815,-5.34126 -1.43926,-1.17836 -4.2742,-4.5949 -6.29986,-7.59233 -2.02566,-2.99743 -5.22268,-6.47649 -7.10447,-7.73125 -1.8818,-1.25476 -4.26198,-3.65539 -5.2893,-5.33472 -1.02731,-1.67935 -2.30897,-3.50701 -2.84814,-4.06148 -1.60654,-1.65215 -3.81875,-8.23047 -3.35901,-9.98851 0.25493,-0.97483 0.0485,-1.56216 -0.51198,-1.45674 -0.51652,0.0971 -0.93912,-0.74413 -0.93912,-1.8695 0,-1.12537 -0.55246,-2.49479 -1.22768,-3.04316 -1.04285,-0.84692 -1.0501,-1.00095 -0.0482,-1.02306 0.85046,-0.0187 0.7363,-0.36124 -0.40923,-1.22768 -1.06285,-0.80389 -1.217,-1.21025 -0.4657,-1.22767 1.41782,-0.0328 10.87645,9.61499 9.78356,9.97929 -0.50267,0.16755 -0.42852,1.10055 0.19648,2.47228 0.55211,1.21175 1.31828,2.00884 1.7026,1.77131 0.38432,-0.23753 0.69877,-0.0414 0.69877,0.43591 0,1.10173 8.3615,0.7726 9.19503,-0.36194 0.33072,-0.45015 0.61258,-0.0818 0.62637,0.81845 0.0208,1.35776 0.16036,1.42755 0.81845,0.40922 0.68867,-1.06564 0.79504,-1.05019 0.80592,0.11705 0.007,0.7396 0.56498,1.55672 1.24021,1.81583 0.74782,0.28696 1.22767,0.002 1.22767,-0.73089 0,-0.66109 0.73661,-1.20199 1.6369,-1.20199 0.9003,0 1.6369,0.3683 1.6369,0.81845 0,0.45015 -0.55245,0.81845 -1.22767,0.81845 -0.67523,0 -1.22768,0.3683 -1.22768,0.81845 0,1.2026 2.92508,0.99714 3.98493,-0.27992 0.50137,-0.60409 0.66923,-1.3407 0.37304,-1.6369 -0.2962,-0.29618 -0.0927,-0.53853 0.4522,-0.53853 0.54491,0 0.88252,-0.59702 0.75025,-1.32673 -0.29767,-1.64217 4.92798,-3.37397 9.62489,-3.18972 3.44405,0.13511 4.47409,-0.63419 4.36337,-3.25882 -0.0578,-1.37063 -0.18566,-1.30406 -0.78591,0.40922 -0.62402,1.78113 -0.68049,1.67513 -0.43601,-0.81845 0.22018,-2.24569 -0.18199,-3.30226 -1.86151,-4.89047 -1.17831,-1.11425 -2.46379,-1.92786 -2.85662,-1.80804 -0.39284,0.11982 -0.49835,-0.34476 -0.23449,-1.03239 0.26855,-0.6998 -0.36663,-2.23423 -1.44275,-3.48528 -1.66788,-1.93903 -2.10014,-2.08762 -3.2637,-1.12195 -0.73766,0.6122 -1.15134,1.30295 -0.91929,1.53499 0.6867,0.68671 -1.31564,2.64428 -2.16672,2.11827 -0.42925,-0.26529 -0.71219,0.015 -0.62875,0.62285 0.40916,2.98063 -0.11195,3.23817 -2.49492,1.23302 -1.92192,-1.61717 -3.13876,-1.99555 -5.62291,-1.74842 -2.54047,0.25274 -3.5401,-0.0783 -5.03232,-1.66675 -1.02417,-1.09017 -2.17689,-1.78759 -2.5616,-1.54982 -0.38471,0.23776 -0.69948,-0.30774 -0.69948,-1.21223 0,-0.9045 0.49869,-1.93907 1.10819,-2.29905 1.31399,-0.77604 3.41894,-4.44613 3.12729,-5.45256 -0.1125,-0.38819 0.45378,-1.21778 1.2584,-1.84352 1.37842,-1.07198 1.36837,-1.11009 -0.17395,-0.65967 -1.6369,0.47805 -1.6369,0.47805 0,-0.85167 0.90029,-0.73135 1.66318,-1.59009 1.6953,-1.90833 0.17979,-1.78119 2.78755,-5.85888 5.46613,-8.54727 1.68806,-1.69422 3.06919,-3.63286 3.06919,-4.30808 0,-0.67522 0.46038,-1.23332 1.02306,-1.24021 0.73702,-0.009 0.70611,-0.21327 -0.11057,-0.73048 -0.90937,-0.57591 -0.7989,-0.89709 0.55841,-1.6235 1.52172,-0.8144 2.85083,-3.20375 3.00871,-5.40876 0.0322,-0.45015 0.74487,-0.69875 1.58365,-0.55244 1.13957,0.19877 1.39117,-0.0829 0.99541,-1.11419 -0.37215,-0.9698 -0.18976,-1.24978 0.61336,-0.94159 0.62865,0.24123 1.92253,-0.1074 2.8753,-0.77474 0.95276,-0.66734 2.15685,-0.95095 2.67576,-0.63025 0.58404,0.36095 0.72099,0.22311 0.35949,-0.36181 -0.32119,-0.5197 -0.17221,-0.94491 0.33107,-0.94491 0.50328,0 0.68582,-0.3709 0.40565,-0.82423 -0.28017,-0.45332 0.0664,-1.04518 0.77015,-1.31524 0.70375,-0.27005 1.28519,-1.09613 1.29208,-1.83573 0.007,-0.77137 0.26892,-0.99576 0.61384,-0.52627 0.81761,1.11287 4.27026,1.16454 4.34186,0.065 0.0316,-0.48589 0.37405,-0.14683 0.76092,0.75347 0.65315,1.51996 0.70751,1.4956 0.76093,-0.34102 0.0663,-2.2796 0.77063,-1.92167 1.26446,0.64258 0.47022,2.44167 1.22839,3.49044 2.12341,2.93729 0.41905,-0.25899 0.7619,-0.0808 0.7619,0.39587 0,1.24183 1.31804,1.06869 2.74765,-0.36092 1.2738,-1.2738 2.54455,-1.68865 1.88028,-0.61384 -0.57744,0.93433 6.33363,0.73296 7.02245,-0.20461 0.33072,-0.45015 0.61258,-0.0818 0.62637,0.81845 0.0208,1.35777 0.16036,1.42755 0.81845,0.40922 0.52892,-0.81845 0.79756,-0.88665 0.80592,-0.20461 0.007,0.56268 0.56498,1.02306 1.24021,1.02306 0.67522,0 1.22767,-0.3683 1.22767,-0.81845 0,-0.45014 0.5409,-0.81845 1.20199,-0.81845 0.7949,0 1.02793,0.48508 0.68805,1.43229 -0.28267,0.78776 -0.22269,1.16902 0.13329,0.84725 0.35599,-0.32178 1.35897,-0.20414 2.22885,0.2614 1.1502,0.61557 1.9344,0.55366 2.87502,-0.22699 1.12785,-0.93603 1.22071,-0.84436 0.72544,0.71612 -0.43829,1.3809 -0.0787,2.11017 1.57474,3.19353 1.67121,1.09502 2.03279,1.84206 1.64308,3.39475 -0.39786,1.5852 0.13267,2.58688 2.60406,4.91668 3.27473,3.08713 4.15584,6.01068 2.28057,7.56701 -0.61913,0.51383 -0.93832,1.42251 -0.70932,2.01929 0.50708,1.32141 -1.01261,2.42974 -1.73309,1.26397 -0.78388,-1.26832 -2.29069,-0.99123 -1.7844,0.32814 0.24481,0.63797 -0.1223,1.37768 -0.8158,1.6438 -0.81543,0.31291 -1.06144,0.98746 -0.69631,1.90925 0.31053,0.78396 0.71269,2.15712 0.89369,3.05148 0.181,0.89434 1.16213,2.30976 2.18028,3.14536 1.01815,0.83562 1.29384,1.34587 0.61264,1.13392 -0.98191,-0.30553 -1.21454,0.32803 -1.12265,3.0576 0.16272,4.83423 0.9227,6.75076 2.87987,7.26257 1.13495,0.29679 1.47855,0.79752 1.04347,1.52065 -0.43866,0.72908 -0.1621,0.68274 0.85416,-0.1431 1.3991,-1.13696 1.46059,-1.08046 0.8909,0.81845 -0.60024,2.00073 -0.58558,2.00843 0.76721,0.40281 1.20217,-1.42686 1.31926,-1.44766 0.91247,-0.16211 -0.27281,0.86216 -0.13056,1.26708 0.34241,0.97476 0.44499,-0.27501 0.80908,-0.0649 0.80908,0.46694 0,0.71833 0.28372,0.7315 1.10344,0.0512 0.84017,-0.69729 1.44025,-0.5436 2.51512,0.64411 1.33844,1.47896 1.33427,1.60491 -0.0804,2.42758 -1.43369,0.83374 -1.43211,0.86865 0.0404,0.89256 1.26881,0.0206 1.35719,0.23614 0.51363,1.25257 -0.81288,0.97945 -0.81288,1.47589 0,2.45535 0.56038,0.67522 0.77511,1.22767 0.47717,1.22767 -0.29794,0 -0.0668,0.53013 0.51362,1.17806 0.91784,1.02457 1.17554,1.02208 1.97796,-0.0191 0.77672,-1.00782 1.0032,-0.90291 1.43226,0.66346 0.42457,1.54998 0.64419,1.65564 1.31558,0.6329 0.53894,-0.82095 0.8101,-0.88874 0.81848,-0.20461 0.007,0.56268 0.52711,1.02306 1.15604,1.02306 1.49395,0 6.22254,-4.16167 6.22254,-5.47649 0,-0.56085 0.46038,-0.85779 1.02306,-0.65986 4.53127,1.59394 11.62708,-0.12277 10.68245,-2.58444 -0.2929,-0.76327 -0.0101,-0.95825 0.88934,-0.6131 0.82746,0.31753 1.3188,0.0773 1.3188,-0.64482 0,-0.84161 0.79985,-1.05752 2.97628,-0.80343 1.89297,0.22099 2.78838,0.0435 2.46004,-0.48782 -0.28392,-0.45939 0.0751,-1.06219 0.79788,-1.33954 0.94523,-0.36271 1.17882,-0.15172 0.83217,0.75164 -0.38513,1.00361 -0.17843,1.09346 1.02894,0.4473 0.83098,-0.44473 1.70758,-0.61189 1.948,-0.37146 0.24043,0.24043 1.25773,-0.0488 2.26067,-0.64263 1.44294,-0.85441 1.90087,-0.86625 2.19403,-0.0567 0.64759,1.78819 2.00777,1.10646 1.42923,-0.71633 -0.37149,-1.1705 -0.25569,-1.55622 0.35408,-1.17937 0.49837,0.30801 0.90613,1.09074 0.90613,1.73939 0,0.64866 0.66288,1.17937 1.47307,1.17937 1.82399,0 8.39511,-4.17286 7.88102,-5.00469 -0.2062,-0.33363 0.3893,-0.84915 1.32334,-1.1456 1.40742,-0.44671 1.60471,-0.96491 1.15204,-3.0259 -0.37828,-1.72233 -0.26768,-2.31475 0.35976,-1.92697 0.49828,0.30796 0.91161,1.18272 0.9185,1.94391 0.0106,1.17306 0.12877,1.20017 0.77525,0.1779 0.44449,-0.70286 0.45729,-1.39483 0.0307,-1.6585 -0.42877,-0.26499 -0.42331,-0.95196 0.0132,-1.65823 0.53635,-0.86783 0.1502,-1.7171 -1.37761,-3.02992 -1.99792,-1.71676 -4.13106,-1.8309 -3.10209,-0.16599 0.60991,0.98686 -0.51377,0.95633 -2.08108,-0.0566 -0.98948,-0.63945 -1.00599,-0.79582 -0.0851,-0.80592 0.68919,-0.007 0.23303,-0.85547 -1.14954,-2.1368 -1.84064,-1.70584 -2.0657,-2.26761 -1.14257,-2.85204 0.63225,-0.40028 0.86087,-0.73342 0.50804,-0.74031 -0.35283,-0.007 0.84416,-1.37852 2.65996,-3.04805 3.18545,-2.92889 4.23524,-5.14902 2.43469,-5.14902 -0.47671,0 -0.63912,-0.3683 -0.36092,-0.81845 0.27821,-0.45015 -0.0568,-0.81845 -0.74446,-0.81845 -0.72285,0 -1.06863,-0.47337 -0.81968,-1.12214 0.23683,-0.61718 -0.16294,-1.7157 -0.8884,-2.44115 -0.72545,-0.72545 -1.46039,-2.05319 -1.6332,-2.95054 -0.17281,-0.89735 -1.61627,-2.77477 -3.20768,-4.17204 -1.59141,-1.39728 -2.8597,-2.78722 -2.81842,-3.08875 0.24887,-1.81778 -0.32458,-1.91846 -1.26472,-0.22204 l -1.08793,1.96311 -0.37821,-2.57695 c -0.20802,-1.41732 -0.0737,-2.57695 0.29848,-2.57695 0.37219,0 0.6767,-0.52176 0.6767,-1.15947 0,-0.63771 0.46038,-1.35294 1.02306,-1.58939 0.73143,-0.30738 0.61255,-0.68962 -0.41706,-1.34094 -0.94161,-0.59566 -1.31511,-1.60044 -1.07897,-2.90269 0.23388,-1.28975 -0.12392,-2.27467 -1.01522,-2.79463 -0.75702,-0.44162 -0.92756,-0.81415 -0.37901,-0.82784 0.54855,-0.0137 0.78985,-0.5657 0.5362,-1.22668 -0.25364,-0.66099 -0.70246,-1.16983 -0.99738,-1.13076 -1.55367,0.20585 -1.7483,-0.25529 -0.59466,-1.40893 1.47931,-1.47931 1.72761,-4.44302 0.37223,-4.44302 -0.51095,0 -0.72517,-0.72172 -0.48584,-1.6369 0.23543,-0.90029 0.0942,-1.6369 -0.31377,-1.6369 -0.40801,0 -0.69822,-0.27622 -0.64491,-0.61383 0.0533,-0.33762 0.007,-0.89007 -0.10231,-1.22768 -0.4329,-1.33381 -0.61719,-2.34275 -0.82221,-4.50147 -0.19087,-2.00969 -0.25193,-2.05222 -0.57005,-0.39709 -0.41716,2.1704 -1.87615,1.64605 -1.87615,-0.67428 0,-0.96254 0.56445,-1.59354 1.43229,-1.60113 0.83379,-0.007 1.07885,-0.26379 0.58645,-0.61384 -0.46521,-0.33072 -0.87955,-1.24583 -0.92076,-2.03359 -0.1463,-2.79689 -0.29543,-3.0699 -1.71182,-3.1338 -0.85564,-0.0386 -1.02039,-0.23082 -0.40922,-0.47743 0.56268,-0.22705 1.02306,-1.11873 1.02306,-1.98151 0,-0.86278 0.3683,-1.5687 0.81845,-1.5687 0.45015,0 0.81845,-0.57419 0.81845,-1.27597 0,-0.73993 -0.38845,-1.03591 -0.92463,-0.70453 -0.56276,0.3478 -0.77222,0.12647 -0.5352,-0.56553 0.21418,-0.62535 0.11116,-2.12321 -0.22895,-3.3286 -0.44285,-1.56946 -0.29092,-2.31726 0.5352,-2.63427 0.63447,-0.24347 1.15358,-0.94748 1.15358,-1.56446 0,-0.73325 0.85041,-1.07119 2.45535,-0.97571 1.35044,0.0803 2.45535,-0.15147 2.45535,-0.51512 0,-0.36365 0.55034,-0.45 1.22298,-0.19188 0.67263,0.25811 0.97024,0.89108 0.66134,1.4066 -0.34066,0.56851 -0.0562,0.52808 0.72288,-0.10276 1.0916,-0.88387 1.92795,-0.41003 5.56889,3.15509 2.35641,2.30733 4.80064,4.27092 5.43162,4.36353 1.34229,0.197 7.67199,6.19738 7.67199,7.27282 0,0.40326 1.01283,1.76273 2.25074,3.02103 4.10141,4.16901 6.12233,7.38081 5.68835,9.04037 -0.23121,0.88415 -0.12685,1.42614 0.2319,1.20441 1.26401,-0.78119 6.77477,12.8054 6.00624,14.80817 -0.25164,0.65575 0.24811,1.82578 1.11056,2.60006 2.31857,2.08154 5.20328,6.4323 5.67054,8.55239 1.59661,7.24437 1.95542,9.61484 2.29378,15.1537 0.17172,2.81097 0.0437,4.94491 -0.28446,4.74209 -0.32818,-0.20283 -0.59669,0.15128 -0.59669,0.7869 0,0.63562 0.28464,0.97976 0.63252,0.76476 0.34787,-0.21501 0.57642,0.35365 0.50786,1.26367 -0.0685,0.91003 -0.47594,1.65459 -0.90532,1.65459 -0.42938,0 -0.54088,0.23981 -0.24778,0.53291 0.29311,0.2931 -0.10589,1.018 -0.88665,1.61087 -0.87305,0.66297 -1.0257,1.08799 -0.3965,1.104 0.56268,0.0143 1.02306,0.41606 1.02306,0.89278 0,0.47671 -0.29382,0.68516 -0.65292,0.46322 -0.3591,-0.22194 -1.1489,-0.097 -1.7551,0.27767 -0.88929,0.54961 -0.76316,1.22976 0.65291,3.52101 1.90449,3.08153 2.22308,4.26012 0.93666,3.46507 -1.42679,-0.88181 -0.8838,0.84888 0.85034,2.71025 0.91782,0.98517 1.26439,1.79122 0.77014,1.79122 -0.49425,0 -0.67822,0.35663 -0.40884,0.79252 0.26939,0.43588 -0.26132,2.44133 -1.17937,4.45656 -0.91805,2.01524 -1.66917,4.21499 -1.66917,4.88834 0,0.67335 -0.3683,1.4519 -0.81845,1.73011 -0.45015,0.2782 -0.81845,1.20978 -0.81845,2.07017 0,1.99303 -3.91682,10.6158 -4.82214,10.6158 -0.37505,0 -0.57763,0.94999 -0.45018,2.11107 0.14395,1.31133 -0.44128,2.78408 -1.54484,3.88764 -0.97711,0.97711 -1.77657,2.03438 -1.77657,2.34948 0,0.31511 -0.46037,1.0333 -1.02306,1.59598 -0.56268,0.56268 -1.02306,1.43766 -1.02306,1.94438 0,0.50672 -0.92076,1.78632 -2.04613,2.84355 -1.12536,1.05723 -2.04612,2.22592 -2.04612,2.59708 0,0.37117 -1.38113,2.10754 -3.06919,3.85862 -1.68805,1.75107 -3.80579,4.07698 -4.70609,5.16868 -2.36706,2.87031 -7.31576,5.6952 -8.28283,4.72813 -0.43583,-0.43582 -1.78898,-0.87489 -3.007,-0.97569 -2.16004,-0.17877 -2.56727,-0.71606 -2.25682,-2.97759 0.0939,-0.68427 -0.23383,-0.86692 -0.86057,-0.47958 -0.70584,0.43624 -0.85407,0.21334 -0.48965,-0.73631 0.28744,-0.74907 0.14415,-1.36194 -0.31844,-1.36194 -0.46259,0 -0.64386,-0.31908 -0.40284,-0.70906 0.24103,-0.38999 -0.28025,-1.35929 -1.1584,-2.154 -1.4664,-1.32708 -1.75674,-1.34002 -3.55965,-0.1587 -1.56719,1.02686 -1.86294,1.75003 -1.46666,3.58628 l 0.49636,2.30006 0.26659,-2.19085 c 0.31261,-2.56889 2.13077,-4.34946 3.54731,-3.47398 0.6871,0.42465 0.44535,0.81752 -0.78259,1.27176 -1.39075,0.51447 -1.77956,1.32991 -1.78936,3.75286 -0.007,1.90162 -0.26862,2.69201 -0.6765,2.04927 -0.47938,-0.75542 -0.93662,-0.44787 -1.64476,1.10634 -0.80886,1.77526 -1.19246,1.97699 -2.18809,1.15069 -0.664,-0.55107 -1.20727,-1.6198 -1.20727,-2.37494 0,-0.75515 -0.46038,-1.86917 -1.02306,-2.4756 -0.8349,-0.8998 -0.76117,-1.01049 0.40088,-0.6018 1.03652,0.36454 1.55852,-0.0354 1.91856,-1.46992 0.59769,-2.38139 -0.0959,-3.69632 -1.95852,-3.71319 -1.19271,-0.0108 -1.21431,-0.12219 -0.15631,-0.80592 0.89209,-0.57651 0.93481,-0.79681 0.15631,-0.80592 -0.58925,-0.007 -0.85947,-0.35539 -0.60049,-0.77442 0.25899,-0.41905 0.14596,-0.96271 -0.25116,-1.20814 -0.39712,-0.24544 -0.54434,-1.3758 -0.32716,-2.51191 0.30404,-1.5905 0.0556,-2.06566 -1.08007,-2.06566 -0.81123,0 -2.2875,-0.76334 -3.2806,-1.69631 -0.9931,-0.93298 -2.34266,-1.77514 -2.99903,-1.87147 -0.65637,-0.0963 -2.2148,-0.8444 -3.46319,-1.66238 -1.24839,-0.81798 -2.03429,-1.10617 -1.74645,-0.64043 0.28784,0.46573 0.14903,1.07813 -0.30846,1.36087 -0.45749,0.28274 -0.87784,0.12404 -0.93411,-0.35267 -0.0562,-0.47672 -0.19438,-1.23506 -0.30692,-1.68521 -0.11253,-0.45015 -0.25628,-1.27883 -0.31944,-1.84151 -0.0873,-0.77764 -0.28086,-0.76118 -0.80687,0.0687 -0.54429,0.85864 -0.81308,0.77617 -1.25916,-0.38629 -0.48589,-1.2662 -0.68705,-1.30535 -1.40389,-0.27324 -0.63304,0.91146 -0.93778,0.95568 -1.25185,0.18168 -0.22832,-0.56269 -1.58141,-0.99718 -3.00687,-0.96554 -2.1901,0.0486 -2.33809,0.16653 -0.95487,0.76092 1.10271,0.47385 1.23627,0.72626 0.40923,0.77346 -1.09126,0.0623 -1.09126,0.15821 0,0.86344 0.70435,0.45519 0.82011,0.79873 0.27155,0.80592 -1.87772,0.0246 -3.54535,-1.00062 -3.54535,-2.17962 0,-1.03481 -0.16923,-1.02933 -1.23863,0.0401 -1.63725,1.63724 -2.57479,6.24434 -1.27072,6.24434 0.53298,0 0.74143,0.3683 0.46322,0.81845 -0.2782,0.45014 -0.22254,1.2768 0.12369,1.83702 0.8979,1.45285 0.92937,7.15461 0.0364,6.60275 -0.41991,-0.25951 -0.50109,0.30735 -0.18613,1.29969 0.39255,1.23683 0.23615,1.69302 -0.52616,1.53478 -0.59661,-0.12385 -0.98684,0.25269 -0.86718,0.83674 0.11967,0.58406 -0.24864,1.0008 -0.81845,0.9261 -2.23204,-0.29263 -3.01059,0.11066 -2.54681,1.31926 0.26617,0.69363 0.16254,1.17036 -0.2303,1.0594 -0.39284,-0.11096 -1.9585,0.46034 -3.47924,1.26954 -1.52076,0.80921 -3.62565,1.30676 -4.67754,1.10568 -1.0519,-0.20108 -2.08046,0.0413 -2.28571,0.5385 -0.20523,0.49726 -0.40223,0.23784 -0.43777,-0.57648 -0.0355,-0.8144 -0.43289,-1.25304 -0.88304,-0.97483 -0.45015,0.2782 -0.81845,0.20787 -0.81845,-0.15631 0,-0.36418 -0.88559,-0.66214 -1.96797,-0.66214 -1.08238,0 -1.79725,0.27622 -1.5886,0.61383 0.20866,0.33761 0.0508,0.61384 -0.35097,0.61384 -0.40169,0 -0.73384,0.46038 -0.7381,1.02306 -0.004,0.56269 -0.29231,1.90746 -0.64009,2.98839 -0.51774,1.6092 -0.39275,1.87339 0.68981,1.45797 1.67837,-0.64405 1.68962,0.31429 0.0277,2.35404 -1.27677,1.56696 -1.28794,1.56631 -0.81644,-0.0482 0.47095,-1.61259 0.45979,-1.61331 -0.75164,-0.0482 -0.68227,0.88148 -1.22971,1.13325 -1.22971,0.56558 0,-0.56275 -0.30722,-0.83331 -0.68271,-0.60124 -0.3755,0.23207 -1.89943,0.63629 -3.38653,0.89829 -3.24422,0.57154 -5.75216,1.82362 -5.75216,2.87173 0,0.42019 0.61287,0.52879 1.36194,0.24135 0.94039,-0.36087 1.17127,-0.21413 0.74594,0.47407 -0.3388,0.54819 -1.22789,0.93666 -1.97577,0.86329 -2.33946,-0.22953 -3.03833,0.0538 -1.905,0.77217 0.87897,0.55717 0.8391,0.78894 -0.20461,1.18945 -0.71296,0.27359 -1.2963,0.10129 -1.2963,-0.38289 z m 17.25394,-32.01091 c 0.0366,-0.56268 0.13996,-2.01651 0.22976,-3.23074 0.0898,-1.21422 0.002,-2.04609 -0.1958,-1.84861 -0.19749,0.19748 -0.92403,-0.0981 -1.61454,-0.6569 -0.80095,-0.64815 -1.05215,-0.67663 -0.69384,-0.0787 0.3089,0.51551 0.0113,1.14848 -0.66134,1.4066 -1.59178,0.61082 -1.58805,2.97602 0.005,2.97602 0.67522,0 1.22767,0.55246 1.22767,1.22768 0,1.47472 1.60829,1.66792 1.70339,0.20461 z m 47.89099,0.0782 c 0.34517,-0.55849 0.22616,-0.72375 -0.29102,-0.40412 -0.48125,0.29743 -1.04019,0.0781 -1.24209,-0.48738 -0.20188,-0.5655 -0.68306,-0.73191 -1.06925,-0.36983 -0.3862,0.36209 -0.1604,1.00098 0.50178,1.41976 1.51093,0.95554 1.40728,0.96336 2.10058,-0.15843 l 0,0 z m -76.80024,-2.75741 c 3.68138,-3.22695 4.94991,-6.06208 2.78035,-6.21402 -1.18,-0.0826 -1.17007,-0.14344 0.0766,-0.46924 1.00645,-0.26301 1.43229,-1.19377 1.43229,-3.13056 0,-3.21729 -1.17321,-4.32942 -2.38016,-2.25623 -0.75791,1.30185 -1.02513,1.20437 -0.82374,-0.30051 0.1488,-1.11184 -2.14807,-1.80384 -4.45548,-1.34236 -1.84055,0.36811 -2.26152,0.23247 -1.76613,-0.56908 0.43546,-0.7046 0.27466,-0.92057 -0.48658,-0.65351 -0.62534,0.21939 -1.07138,1.09048 -0.9912,1.93575 0.0802,0.84527 -0.28633,1.80392 -0.81446,2.13033 -0.67352,0.41626 -0.47266,0.97636 0.67266,1.87577 1.61817,1.27071 1.6183,1.28025 0.0144,1.05537 -0.89019,-0.12481 -1.63985,0.14139 -1.6659,0.59154 -0.0261,0.45014 -0.51173,1.65474 -1.07928,2.67688 -1.24257,2.23781 -0.64731,3.46149 1.68385,3.46149 0.94875,0 1.49243,0.23258 1.20817,0.51683 -0.77484,0.77484 0.95806,3.57541 2.21234,3.57541 0.60076,0 2.57278,-1.29774 4.38227,-2.88386 l 0,0 z m 30.88889,2.06541 c 0.2782,-0.45015 0.11579,-0.81845 -0.36092,-0.81845 -0.47672,0 -0.86676,0.3683 -0.86676,0.81845 0,0.45015 0.16241,0.81845 0.36092,0.81845 0.19851,0 0.58855,-0.3683 0.86676,-0.81845 z m 73.59289,0.10939 c 0.24103,-0.38999 -0.38177,-1.40283 -1.38398,-2.25074 -1.81745,-1.53764 -1.81847,-1.53722 -0.38814,0.16164 0.78874,0.93683 1.18773,1.94966 0.88666,2.25074 -0.30109,0.30108 -0.32363,0.54742 -0.0501,0.54742 0.27352,0 0.69453,-0.31908 0.93555,-0.70906 l 0,0 z m 7.84288,-0.60672 c 0,-0.67737 -1.58921,-1.06042 -1.95357,-0.47088 -0.23637,0.38247 0.10648,0.6954 0.7619,0.6954 0.65541,0 1.19167,-0.10104 1.19167,-0.22452 z m -119.4937,-0.68204 c 0,-0.19851 -0.3683,-0.58855 -0.81845,-0.86675 -0.45015,-0.27821 -0.81845,-0.1158 -0.81845,0.36092 0,0.47671 0.3683,0.86675 0.81845,0.86675 0.45015,0 0.81845,-0.16241 0.81845,-0.36092 z m 40.67123,-2.69269 c -0.20751,-0.79633 -0.39094,-0.34296 -0.40762,1.00749 -0.0167,1.35044 0.1531,2.00197 0.37729,1.44786 0.22419,-0.55412 0.23784,-1.65902 0.0303,-2.45535 l 4e-5,0 z m 74.73022,1.82594 c 0,-1.13521 1.0147,-1.60982 2.76037,-1.29113 0.39284,0.0717 0.49647,-0.43712 0.2303,-1.13076 -0.26617,-0.69362 -0.14835,-1.26114 0.26183,-1.26114 0.41017,0 0.60038,-0.75492 0.42268,-1.67761 -0.18994,-0.98631 0.19496,-1.8764 0.93407,-2.16003 0.93452,-0.3586 1.00112,-0.64064 0.2595,-1.09899 -0.69707,-0.4308 -0.41502,-0.92839 0.93619,-1.65153 1.84361,-0.98667 1.85866,-1.06132 0.32243,-1.60019 -1.39797,-0.49039 -1.80767,0.0741 -3.09352,4.2628 -1.45104,4.72681 -3.18582,6.55631 -4.74162,5.00051 -0.49342,-0.49342 -0.32483,-2.06735 0.45958,-4.29059 0.74562,-2.11334 1.04665,-4.71328 0.7561,-6.53032 -0.82218,-5.14162 3.52671,-6.65759 5.29727,-1.84657 l 0.80242,2.18035 -0.11773,-2.25074 c -0.0647,-1.23791 -0.40572,-2.25074 -0.75768,-2.25074 -0.35197,0 -0.64558,-0.64453 -0.65247,-1.43229 -0.007,-0.80881 -0.27428,-1.07601 -0.61384,-0.61383 -0.84258,1.14686 -2.99837,0.99765 -4.58262,-0.31717 -1.21888,-1.01157 -1.69364,-0.70367 -1.43553,0.931 0.0533,0.33762 -0.31648,0.61384 -0.82174,0.61384 -0.61375,0 -0.56218,0.42955 0.15536,1.29414 0.85837,1.03426 0.87161,1.61827 0.066,2.90832 -0.87008,1.39324 -0.80733,1.58019 0.45847,1.36583 2.36599,-0.40068 2.50119,3.42436 0.14283,4.04108 -1.75433,0.45877 -1.76996,0.52157 -0.26936,1.08204 1.48267,0.55377 1.45127,0.65409 -0.45305,1.44751 -1.40764,0.5865 -1.6072,0.86872 -0.63952,0.9044 0.85851,0.0317 1.23541,0.49799 0.96726,1.19677 -0.24163,0.62969 -0.0459,1.38803 0.43491,1.68521 0.48084,0.29717 0.87425,1.25518 0.87425,2.12891 0,0.87372 0.3683,1.58859 0.81845,1.58859 0.45015,0 0.81845,-0.55245 0.81845,-1.22767 l -10e-6,0 z m -76.11585,-0.81845 c 0,-0.67522 -0.34656,-1.22768 -0.77014,-1.22768 -1.03205,0 -1.77121,1.27809 -1.11733,1.93197 0.92173,0.92172 1.88747,0.56137 1.88747,-0.70429 z m 73.28493,-0.35478 c -0.29672,-0.48009 -0.90057,-0.8729 -1.3419,-0.8729 -0.44133,0 -0.32752,0.51531 0.25291,1.14513 1.17502,1.275 1.92877,1.08657 1.08899,-0.27223 l 0,0 z m -5.61294,-2.66326 c -0.26126,-0.6529 -0.4552,-0.45897 -0.49447,0.49449 -0.0355,0.86277 0.15789,1.34617 0.42986,1.07421 0.27197,-0.27197 0.30104,-0.97788 0.0646,-1.5687 l 3e-5,0 z m -70.8339,-2.12818 c -0.59046,-0.19682 -1.4627,0.0313 -1.9383,0.50687 -0.60735,0.60735 -0.2878,0.71386 1.07357,0.35786 1.10671,-0.28941 1.47771,-0.6604 0.86473,-0.86473 l 0,0 z m 2.06823,-3.34311 c 1.23472,1.01855 1.27019,0.95158 0.38043,-0.71824 -1.20124,-2.25437 -1.13641,-2.25406 -3.04754,-0.0141 -1.26926,1.48765 -1.29284,1.62119 -0.12685,0.71823 1.20617,-0.93406 1.64726,-0.93183 2.79396,0.0141 l 0,0 z m 69.02503,-1.20522 c 0,-0.15531 -0.82868,-0.98399 -1.84151,-1.84151 l -1.84152,-1.55914 1.55914,1.84151 c 1.46521,1.73056 2.12389,2.2141 2.12389,1.55914 z m -74.75536,-3.19604 c -0.22704,-0.56268 -0.41281,-0.10231 -0.41281,1.02306 0,1.12537 0.18577,1.58575 0.41281,1.02306 0.22705,-0.56268 0.22705,-1.48344 0,-2.04612 z m 75.71647,0.7657 c -2.27476,-2.42138 -2.24243,-2.82194 0.47118,-5.83623 l 2.25073,-2.50013 -2.65996,2.40386 c -1.46298,1.32212 -2.65996,2.7716 -2.65996,3.22105 0,0.84352 3.24157,4.60571 3.96836,4.60571 0.22507,0 -0.39158,-0.85241 -1.37035,-1.89426 l 0,0 z m 18.42233,-4.8068 c -0.26126,-0.6529 -0.4552,-0.45897 -0.49447,0.49449 -0.0355,0.86277 0.15789,1.34617 0.42986,1.07421 0.27197,-0.27197 0.30104,-0.97788 0.0646,-1.5687 l 3e-5,0 z m 6.60235,-0.73055 c -0.78776,-0.45882 -1.46137,-1.46045 -1.49691,-2.22584 -0.0416,-0.89624 -0.21483,-1.01764 -0.4866,-0.34104 -0.48979,1.2194 1.14235,3.46242 2.49294,3.426 0.50757,-0.0137 0.27832,-0.40028 -0.50943,-0.85912 z m -97.19094,-1.79323 c 0.82032,-0.31227 0.61665,-0.48877 -0.61384,-0.53194 -1.2372,-0.0434 -1.83739,0.4054 -1.82898,1.36767 0.007,0.88346 0.24294,1.08729 0.61384,0.53194 0.33072,-0.49518 1.15376,-1.11063 1.82898,-1.36767 z m 90.78747,-19.75727 c 1.3665,-1.64652 -0.159,-2.3062 -2.91229,-1.2594 -1.83335,0.69703 -2.0517,1.02308 -1.09175,1.63022 1.69804,1.07395 2.89716,0.9629 4.00404,-0.37082 z m -109.20259,-1.30054 c 0.2782,-0.45015 0.13752,-0.81845 -0.31262,-0.81845 -0.45015,0 -1.04608,0.3683 -1.32428,0.81845 -0.27821,0.45015 -0.13753,0.81845 0.31262,0.81845 0.45014,0 1.04607,-0.3683 1.32428,-0.81845 z"
       style="fill:#d38d5f;fill-opacity:1;stroke:#550026;stroke-width:0.73699999;stroke-linecap:butt;stroke-linejoin:miter;stroke-miterlimit:4;stroke-opacity:1;stroke-dasharray:none" />
    <path
       transform="translate(0,-240)"
       sodipodi:type="arc"
       style="fill:#a05a2c;fill-opacity:1;stroke:#550027;stroke-width:0.89999998;stroke-linecap:butt;stroke-linejoin:miter;stroke-miterlimit:4;stroke-opacity:1;stroke-dasharray:none;filter:url(#filter9361)"
       id="path9103"
       sodipodi:cx="-700"
       sodipodi:cy="380"
       sodipodi:rx="100"
       sodipodi:ry="100"
       d="m -600,380 a 100,100 0 1 1 -200,0 100,100 0 1 1 200,0 z" />
    <path
       style="fill:#d38d5f;fill-opacity:1;stroke:#550026;stroke-width:0.73699999;stroke-linecap:butt;stroke-linejoin:miter;stroke-miterlimit:4;stroke-opacity:1;stroke-dasharray:none"
       d="m -684.52953,57.826359 c 0.0721,0.478789 0.68926,0.554015 1.37156,0.167171 0.68231,-0.386857 1.80316,-0.363589 2.49079,0.05177 0.85802,0.518244 1.52863,0.448317 2.13763,-0.222897 0.6428,-0.708458 1.56608,-0.425192 3.34963,1.027654 2.70342,2.202168 2.74303,3.660511 0.0509,1.872753 -3.24545,-2.155161 -1.47249,0.07535 1.94594,2.448122 4.83212,3.354028 6.39865,3.809676 7.80211,2.269356 0.98826,-1.084627 1.10967,-1.060596 0.84925,0.168079 -0.16712,0.78849 0.26213,1.775371 0.95355,2.193097 0.69157,0.417703 1.16528,1.211659 1.05268,1.764339 -0.11259,0.55268 0.20281,1.473284 0.70097,2.045764 0.73995,0.850414 1.36074,0.5298 3.39239,-1.752022 1.36768,-1.536109 2.44448,-3.252122 2.39288,-3.813383 -0.13406,-1.458602 2.03244,-1.586558 2.83697,-0.167565 0.37178,0.655726 0.95191,0.958403 1.28919,0.672628 0.33727,-0.285794 1.45545,0.809306 2.48485,2.433531 1.02939,1.624235 3.17956,3.731287 4.77816,4.682329 1.59859,0.951053 4.9104,3.907663 7.35957,6.570264 2.44918,2.662602 6.12834,5.627152 8.1759,6.587899 2.04758,0.960745 4.75851,2.980433 6.0243,4.488181 1.26579,1.507769 2.80516,3.124346 3.42084,3.592404 1.83452,1.394674 5.00106,7.570537 4.80806,9.377417 -0.10702,1.00191 0.18452,1.55198 0.72307,1.36433 0.49632,-0.17289 1.0394,0.59608 1.20687,1.70892 0.16748,1.11284 0.91758,2.3848 1.66689,2.82658 1.15727,0.68229 1.18736,0.83353 0.19991,1.00449 -0.83821,0.14506 -0.67434,0.46679 0.58737,1.15311 1.17065,0.63677 1.38355,1.01567 0.64321,1.1447 -1.39715,0.24343 -12.18621,-7.88933 -11.1597,-8.41222 0.47214,-0.24049 0.25997,-1.15206 -0.56221,-2.41551 -0.72629,-1.11609 -1.60255,-1.79029 -1.94724,-1.49821 -0.34469,0.29208 -0.68483,0.14493 -0.75586,-0.32707 -0.16395,-1.089463 -8.38337,0.48034 -9.03878,1.72629 -0.26005,0.49435 -0.59358,0.17205 -0.74119,-0.71613 -0.22263,-1.33954 -0.37102,-1.38778 -0.87024,-0.28286 -0.52241,1.15626 -0.6299,1.15681 -0.81436,0.004 -0.11699,-0.73032 -0.79036,-1.45531 -1.49663,-1.611054 -0.78219,-0.172476 -1.21429,0.180724 -1.10523,0.905454 0.0984,0.65373 -0.54953,1.29823 -1.4398,1.4322 -0.89027,0.13398 -1.67348,-0.1206 -1.74047,-0.56573 -0.067,-0.44514 0.4245,-0.89155 1.0922,-0.99204 0.66771,-0.10048 1.1592,-0.5469 1.09221,-0.992039 -0.17896,-1.189209 -3.0409,-0.550736 -3.8989,0.869829 -0.40588,0.67198 -0.46226,1.42537 -0.12528,1.67419 0.33697,0.2488 0.17181,0.51874 -0.36703,0.59983 -0.53884,0.0811 -0.78384,0.7217 -0.54445,1.4236 0.53873,1.57959 -4.37101,4.06977 -9.04304,4.58655 -3.4258,0.37893 -4.32989,1.29295 -3.82981,3.87187 0.26113,1.34677 0.37766,1.26191 0.71626,-0.52162 0.35201,-1.85416 0.42362,-1.75774 0.55295,0.74445 0.11647,2.25346 0.6714,3.23841 2.56857,4.55899 1.331,0.9265 2.72325,1.53975 3.09387,1.36279 0.37064,-0.17695 0.54411,0.26677 0.38552,0.98601 -0.16142,0.73197 0.69504,2.15479 1.94535,3.23175 1.93787,1.66923 2.38743,1.75184 3.39432,0.62377 0.63835,-0.71516 0.94462,-1.45978 0.68063,-1.65471 -0.78125,-0.57687 0.90747,-2.81062 1.82736,-2.41712 0.46395,0.19845 0.70202,-0.12081 0.52905,-0.70947 -0.84817,-2.88657 -0.37119,-3.21878 2.28365,-1.59059 2.14118,1.31315 3.40078,1.50624 5.82049,0.89217 2.47457,-0.62799 3.51233,-0.4494 5.22432,0.8993 1.17501,0.92561 2.41868,1.44372 2.76372,1.15135 0.34504,-0.29236 0.73749,0.20022 0.87209,1.09464 0.13461,0.89443 -0.20457,1.99169 -0.75371,2.43836 -1.18387,0.96295 -2.71921,4.90542 -2.28104,5.85724 0.16902,0.36713 -0.2675,1.27175 -0.97004,2.01026 -1.20354,1.26518 -1.18793,1.30137 0.27018,0.62644 1.54753,-0.71632 1.54753,-0.71632 0.12675,0.84219 -0.78143,0.85718 -1.40803,1.81989 -1.39244,2.13937 0.0873,1.78811 -1.88461,6.20847 -4.13328,9.26554 -1.41714,1.92657 -2.49439,4.04916 -2.3939,4.71686 0.10048,0.6677 -0.27172,1.2881 -0.82711,1.37865 -0.72747,0.11858 -0.66651,0.31597 0.21805,0.70589 0.98495,0.43417 0.9235,0.76821 -0.31059,1.68852 -1.38358,1.03179 -2.34231,3.59233 -2.17029,5.79628 0.0351,0.44993 -0.63259,0.80182 -1.48381,0.78196 -1.15646,-0.027 -1.36334,0.28901 -0.81851,1.24992 0.51232,0.90362 0.37363,1.20762 -0.46641,1.02238 -0.65755,-0.14499 -1.88514,0.39231 -2.72799,1.19401 -0.84284,0.80169 -1.99131,1.26133 -2.55217,1.02143 -0.63125,-0.27002 -0.74617,-0.11333 -0.30165,0.41128 0.39496,0.46611 0.31092,0.90876 -0.18676,0.98365 -0.49768,0.0749 -0.62299,0.46883 -0.27847,0.87542 0.34451,0.40658 0.0899,1.04342 -0.56585,1.41521 -0.65573,0.37177 -1.10776,1.27518 -1.0045,2.00757 0.10787,0.76382 -0.11774,1.02469 -0.52869,0.61176 -0.97412,-0.97881 -4.39601,-0.51609 -4.30319,0.58186 0.0411,0.48519 -0.34803,0.20086 -0.86457,-0.63184 -0.87208,-1.40583 -0.92221,-1.37366 -0.70171,0.45046 0.27368,2.26408 -0.47607,2.01496 -1.34601,-0.44725 -0.82834,-2.3445 -1.73414,-3.26877 -2.53688,-2.58858 -0.37584,0.31846 -0.74139,0.19328 -0.81233,-0.27808 -0.1848,-1.228 -1.4624,-0.86065 -2.66334,0.76579 -1.07006,1.44918 -2.26492,2.04852 -1.768,0.88683 0.43197,-1.00986 -6.37218,0.21775 -6.9138,1.24738 -0.26005,0.49436 -0.59359,0.17206 -0.74119,-0.71612 -0.22263,-1.33955 -0.37102,-1.38779 -0.87024,-0.28286 -0.40123,0.88805 -0.65673,0.99547 -0.7665,0.32226 -0.0906,-0.55537 -0.71093,-0.92759 -1.37864,-0.8271 -0.6677,0.10048 -1.15919,0.5469 -1.0922,0.99203 0.067,0.44513 -0.41308,0.88983 -1.06681,0.98822 -0.78605,0.11829 -1.08867,-0.32671 -0.89354,-1.31395 0.16229,-0.82106 0.0462,-1.18914 -0.25789,-0.81798 -0.30414,0.37117 -1.31346,0.4041 -2.24293,0.0732 -1.229,-0.43755 -1.99525,-0.25963 -2.80923,0.65231 -0.97599,1.09345 -1.08146,1.01662 -0.82393,-0.60019 0.22791,-1.43073 -0.2362,-2.09838 -2.03245,-2.92362 -1.81556,-0.83412 -2.28429,-1.51902 -2.12998,-3.11243 0.15752,-1.62675 -0.51617,-2.53833 -3.30675,-4.4744 -3.69768,-2.56541 -5.00405,-5.3253 -3.38127,-7.14337 0.53577,-0.60024 0.71618,-1.54631 0.40092,-2.10236 -0.69809,-1.23124 0.63974,-2.55338 1.52569,-1.50781 0.9639,1.13754 2.41269,0.6393 1.71569,-0.59003 -0.33702,-0.59444 -0.0841,-1.38054 0.5621,-1.7469 0.75978,-0.43078 0.90267,-1.13443 0.40442,-1.99162 -0.42373,-0.72902 -1.02576,-2.02704 -1.33784,-2.8845 -0.31208,-0.85745 -1.49292,-2.1111 -2.62409,-2.78588 -1.13117,-0.67479 -1.47972,-1.13833 -0.77456,-1.03012 1.01644,0.156 1.1522,-0.50512 0.65512,-3.19062 -0.88032,-4.75619 -1.91705,-6.53828 -3.92859,-6.75313 -1.16648,-0.12458 -1.58077,-0.56861 -1.25815,-1.34843 0.32528,-0.78624 0.0587,-0.69926 -0.82335,0.26862 -1.21432,1.33251 -1.28354,1.28579 -1.00278,-0.67676 0.29582,-2.06777 0.28017,-2.07321 -0.81861,-0.28415 -0.97644,1.58988 -1.08913,1.62787 -0.87819,0.2961 0.14147,-0.89316 -0.0595,-1.2724 -0.48365,-0.91295 -0.39911,0.33817 -0.79042,0.18458 -0.86956,-0.34134 -0.1069,-0.71033 -0.38942,-0.68113 -1.09877,0.11358 -0.72705,0.81456 -1.34332,0.75188 -2.58297,-0.26264 -1.54363,-1.26331 -1.55825,-1.38848 -0.28176,-2.41252 1.29365,-1.03781 1.28689,-1.0721 -0.17278,-0.87661 -1.25775,0.16845 -1.37722,-0.0315 -0.69431,-1.16218 0.65807,-1.08951 0.58419,-1.58043 -0.3654,-2.42801 -0.65462,-0.58431 -0.94918,-1.09865 -0.65455,-1.14299 0.29462,-0.0443 -0.0128,-0.53417 -0.68322,-1.08851 -1.06009,-0.87657 -1.31455,-0.83576 -1.95309,0.31324 -0.61809,1.11219 -0.85766,1.04215 -1.51505,-0.44292 -0.6505,-1.46954 -0.8834,-1.54134 -1.39511,-0.43008 -0.41077,0.89202 -0.66883,0.9994 -0.77892,0.32414 -0.0907,-0.55537 -0.67349,-0.93323 -1.29542,-0.83963 -1.47731,0.22232 -5.53392,5.04134 -5.33826,6.34152 0.0835,0.55461 -0.3276,0.91675 -0.91347,0.80476 -4.71801,-0.90186 -11.47934,1.85171 -10.17889,4.14539 0.40323,0.71118 0.15259,0.94608 -0.78819,0.73862 -0.8655,-0.19085 -1.31562,0.11982 -1.20816,0.8339 0.12525,0.83224 -0.63357,1.16478 -2.82357,1.23741 -1.90478,0.0632 -2.76381,0.37194 -2.36006,0.84848 0.34913,0.41202 0.0838,1.06154 -0.58965,1.44336 -0.88072,0.49934 -1.14311,0.32546 -0.93476,-0.61943 0.23149,-1.04975 0.0137,-1.10784 -1.08404,-0.28919 -0.75555,0.56344 -1.59751,0.85919 -1.87103,0.65721 -0.27354,-0.20197 -1.23647,0.23543 -2.13987,0.9719 -1.29972,1.05963 -1.75079,1.13949 -2.16116,0.38258 -0.90649,-1.67191 -2.15007,-0.79535 -1.30671,0.92105 0.54154,1.10218 0.48443,1.50084 -0.17463,1.21893 -0.53866,-0.23042 -1.05836,-0.94375 -1.15489,-1.58518 -0.0965,-0.64143 -0.83101,-1.06759 -1.63218,-0.94702 -1.80367,0.27144 -7.68063,5.37573 -7.04848,6.12179 0.25356,0.29923 -0.2586,0.89763 -1.13812,1.32978 -1.32527,0.65118 -1.44324,1.19297 -0.68891,3.16365 0.63038,1.64685 0.60918,2.24914 -0.069,1.95905 -0.53857,-0.23038 -1.07747,-1.03389 -1.19756,-1.78558 -0.18506,-1.15842 -0.30594,-1.16764 -0.79309,-0.0606 -0.33495,0.76118 -0.24463,1.44735 0.21645,1.6446 0.46343,0.19824 0.56026,0.87837 0.23372,1.64173 -0.40123,0.93799 0.107,1.72034 1.81317,2.79117 2.23116,1.40032 4.35753,1.19575 3.09225,-0.2975 -0.74998,-0.8851 0.36573,-1.02214 2.06633,-0.25373 1.07362,0.48508 1.11322,0.63725 0.20409,0.78429 -0.68048,0.10948 -0.10313,0.88062 1.45473,1.94193 2.074,1.41293 2.38015,1.93495 1.55428,2.65025 -0.56565,0.48991 -0.74214,0.85336 -0.39222,0.80767 0.34995,-0.0456 -0.62961,1.4888 -2.17674,3.40996 -2.71411,3.37032 -3.42182,5.72196 -1.64132,5.454 0.4714,-0.0709 0.68682,0.26909 0.4787,0.75563 -0.20812,0.48654 0.17797,0.80088 0.85797,0.69855 0.7148,-0.10757 1.12718,0.30907 0.97755,0.98766 -0.14235,0.64555 0.41645,1.67235 1.24179,2.28176 0.82533,0.60941 1.74968,1.813 2.0541,2.67464 0.30443,0.86164 2.01121,2.50334 3.79283,3.64822 1.78163,1.1449 3.24264,2.33062 3.2467,2.63493 0.0244,1.83458 0.60646,1.8488 1.28368,0.0314 l 0.78367,-2.10315 0.75749,2.49197 c 0.41663,1.37058 0.45637,2.53729 0.0883,2.59267 -0.36805,0.0554 -0.59152,0.61666 -0.49662,1.24727 0.0949,0.6306 -0.25391,1.40638 -0.77514,1.72394 -0.67754,0.4128 -0.5031,0.77309 0.61197,1.26394 1.01977,0.4489 1.53864,1.38691 1.49892,2.7098 -0.0393,1.31019 0.46105,2.2309 1.41981,2.61243 0.81431,0.32404 1.03839,0.66705 0.49798,0.76222 -0.5404,0.0952 -0.69687,0.67694 -0.34768,1.29281 0.34919,0.61589 0.86873,1.05227 1.15455,0.96975 1.50574,-0.43477 1.76683,-0.008 0.79771,1.30474 -1.24269,1.68298 -1.04717,4.65064 0.29311,4.44894 0.50526,-0.076 0.8245,0.60577 0.72403,1.54637 -0.0988,0.9253 0.15045,1.63269 0.55388,1.57198 0.40346,-0.0607 0.73155,0.16924 0.72907,0.51102 -0.002,0.3418 0.12554,0.8812 0.28387,1.19879 0.62658,1.25453 0.95896,2.22481 1.48295,4.32898 0.48782,1.95891 0.55453,1.99188 0.6228,0.30784 0.0895,-2.20831 1.6103,-1.90692 1.9556,0.38757 0.14324,0.95182 -0.32102,1.65979 -1.17807,1.79645 -0.82346,0.131 -1.02758,0.4214 -0.48857,0.69428 0.50925,0.2578 1.05516,1.10106 1.21314,1.87392 0.5609,2.74397 0.74899,2.99175 2.15912,2.84416 0.85186,-0.0892 1.04338,0.0764 0.47571,0.41121 -0.52262,0.30826 -0.84518,1.25852 -0.71678,2.11169 0.12839,0.85318 -0.13075,1.60605 -0.57589,1.67304 -0.44514,0.067 -0.72389,0.68959 -0.61945,1.38356 0.11011,0.73169 0.53828,0.96656 1.01918,0.55908 0.50473,-0.42767 0.7448,-0.23998 0.6134,0.47959 -0.11873,0.65026 0.20605,2.11611 0.72175,3.25746 0.67148,1.48608 0.63253,2.24816 -0.13722,2.68458 -0.59117,0.33518 -0.99973,1.10861 -0.90791,1.71872 0.10912,0.72508 -0.68153,1.18581 -2.28281,1.33024 -1.34735,0.12156 -2.40547,0.51518 -2.35135,0.87478 0.0541,0.3596 -0.47725,0.52689 -1.18081,0.37174 -0.70355,-0.15514 -1.09204,-0.73677 -0.8633,-1.29252 0.25226,-0.61287 -0.023,-0.53056 -0.69954,0.2092 -0.94791,1.03647 -1.84546,0.69237 -5.97641,-2.29122 -2.67354,-1.93096 -5.38276,-3.50895 -6.0205,-3.50663 -1.35666,0.005 -8.50883,-4.98665 -8.66888,-6.05011 -0.06,-0.39877 -1.26387,-1.59238 -2.67525,-2.65244 -4.67616,-3.51223 -7.15255,-6.38752 -6.97037,-8.09319 0.0971,-0.90871 -0.0868,-1.42913 -0.40855,-1.15649 -1.13369,0.9606 -8.60499,-11.65461 -8.14307,-13.74945 0.15126,-0.68589 -0.51705,-1.76852 -1.48512,-2.40583 -2.60252,-1.71332 -6.10257,-5.58635 -6.88014,-7.61329 -2.65691,-6.9261 -3.36449,-9.21678 -4.52336,-14.64361 -0.58812,-2.75411 -0.77909,-4.88334 -0.42441,-4.73162 0.35471,0.15173 0.56754,-0.23839 0.47295,-0.86693 -0.0946,-0.62855 -0.42728,-0.92649 -0.73929,-0.66212 -0.312,0.26439 -0.62263,-0.26393 -0.69026,-1.17402 -0.0677,-0.91009 0.22441,-1.70699 0.64901,-1.77089 0.4246,-0.0639 0.49917,-0.31763 0.16571,-0.56385 -0.33346,-0.24622 -0.0468,-1.02242 0.63706,-1.72488 0.76467,-0.78551 0.85237,-1.22852 0.22779,-1.15071 -0.55854,0.0696 -1.07359,-0.25918 -1.14453,-0.73059 -0.0709,-0.47141 0.18859,-0.72126 0.57672,-0.55523 0.38813,0.16603 1.15054,-0.0751 1.69423,-0.53577 0.7976,-0.67583 0.57165,-1.32964 -1.16962,-3.38464 -2.34187,-2.76379 -2.83231,-3.88185 -1.44189,-3.28709 1.54213,0.65966 0.74763,-0.97095 -1.24421,-2.55353 -1.05421,-0.83761 -1.51687,-1.58311 -1.02812,-1.65666 0.48874,-0.0736 0.61759,-0.45359 0.28634,-0.84454 -0.33125,-0.39094 -0.1049,-2.45304 0.50303,-4.58245 0.60793,-2.12942 1.02332,-4.41645 0.92312,-5.0823 -0.10021,-0.66586 0.14813,-1.49055 0.55187,-1.83265 0.40373,-0.34209 0.6293,-1.31811 0.50126,-2.16891 -0.2966,-1.97084 2.2934,-11.08048 3.18863,-11.21521 0.37088,-0.0558 0.42983,-1.02537 0.13101,-2.15456 -0.33749,-1.2753 0.0221,-2.81875 0.94909,-4.07425 0.82082,-1.11164 1.45404,-2.27611 1.40715,-2.5877 -0.0469,-0.3116 0.30147,-1.0903 0.77416,-1.73045 0.47268,-0.64015 0.79772,-1.5739 0.72231,-2.07498 -0.0754,-0.50108 0.64467,-1.90345 1.60018,-3.11639 0.95549,-1.21292 1.69208,-2.505621 1.63685,-2.872648 -0.0552,-0.367037 1.05211,-2.289607 2.46078,-4.2724 1.40867,-1.982781 3.15669,-4.597947 3.88451,-5.81147 1.91355,-3.190606 6.38675,-6.720489 7.48697,-5.908104 0.49583,0.366109 1.89926,0.598918 3.11872,0.517334 2.16259,-0.14467 2.64524,0.326035 2.6748,2.608582 0.009,0.690625 0.36024,0.822469 0.92236,0.346173 0.63306,-0.536423 0.81281,-0.338064 0.59377,0.655243 -0.17277,0.783505 0.0601,1.368226 0.51757,1.299385 0.45744,-0.06884 0.68418,0.21971 0.50388,0.641216 -0.18031,0.421516 0.47941,1.302448 1.46605,1.957625 1.64756,1.094078 1.9366,1.063667 3.54363,-0.372802 1.39692,-1.248649 1.58176,-2.007779 0.91663,-3.764609 l -0.83312,-2.200582 0.0624,2.206127 c 0.0732,2.586807 -1.45977,4.618122 -2.99082,3.963196 -0.74264,-0.31767 -0.56205,-0.742142 0.58462,-1.374062 1.2987,-0.715707 1.56183,-1.579929 1.21094,-3.977357 -0.27607,-1.881487 -0.13498,-2.702009 0.36401,-2.127126 0.58646,0.675669 0.99284,0.303499 1.4618,-1.338788 0.53566,-1.875864 0.88497,-2.132434 1.99248,-1.463501 0.73862,0.44612 1.43488,1.422102 1.54726,2.168833 0.11238,0.746741 0.73342,1.779844 1.38008,2.295785 0.95951,0.765534 0.90307,0.885964 -0.30686,0.654757 -1.07923,-0.20623 -1.5359,0.266939 -1.67845,1.739066 -0.23664,2.443819 0.64491,3.640889 2.4893,3.380382 1.18103,-0.166815 1.21897,-0.05988 0.2745,0.773685 -0.79636,0.702848 -0.80582,0.927052 -0.0346,0.820207 0.58373,-0.08077 0.90278,0.223529 0.70905,0.676434 -0.19375,0.452926 -10e-4,0.973711 0.42815,1.15731 0.42922,0.183609 0.74302,1.279474 0.69733,2.435253 -0.064,1.618036 0.25242,2.050933 1.37545,1.881926 0.8022,-0.120724 2.37562,0.414422 3.49651,1.189214 1.12088,0.774801 2.58074,1.406747 3.24414,1.404325 0.66339,-0.0025 2.3158,0.505391 3.67202,1.128481 1.35621,0.62309 2.17625,0.79112 1.8223,0.3734 -0.35394,-0.41771 -0.30781,-1.04395 0.10251,-1.39162 0.41032,-0.347668 0.84961,-0.25329 0.97619,0.20973 0.12652,0.46305 0.37601,1.19238 0.55429,1.62077 0.17827,0.42839 0.44374,1.22645 0.58993,1.77347 0.20205,0.75599 0.39101,0.71091 0.78766,-0.18801 0.41045,-0.93008 0.68852,-0.88853 1.30263,0.1946 0.66891,1.1798 0.87366,1.18857 1.42892,0.0613 0.49035,-0.99552 0.78511,-1.0846 1.21087,-0.36595 0.30952,0.52244 1.7122,0.75073 3.11708,0.50731 2.15848,-0.37398 2.28727,-0.51262 0.831,-0.89455 -1.16095,-0.30447 -1.33059,-0.53419 -0.51978,-0.70394 1.06984,-0.22401 1.05557,-0.31885 -0.12849,-0.85383 -0.76425,-0.3453 -0.92985,-0.66779 -0.38846,-0.75653 1.85315,-0.30376 3.65478,0.46187 3.83023,1.62774 0.154,1.02329 0.32053,0.99268 1.21887,-0.22398 1.37537,-1.86266 1.61686,-6.557977 0.32731,-6.36391 -0.52704,0.07932 -0.78798,-0.253861 -0.57986,-0.740401 0.20811,-0.486528 0.0301,-1.2957 -0.39569,-1.798157 -1.10411,-1.30305 -1.98375,-6.936637 -1.01859,-6.523811 0.45385,0.194131 0.44977,-0.378498 -0.009,-1.312917 -0.57224,-1.164639 -0.48547,-1.639025 0.2919,-1.595991 0.6084,0.03369 0.93824,-0.396734 0.733,-0.956473 -0.20525,-0.559748 0.0969,-1.026658 0.67152,-1.037587 2.25073,-0.04279 2.9606,-0.557454 2.32212,-1.683577 -0.36643,-0.646296 -0.3349,-1.13314 0.0701,-1.081876 0.40498,0.05126 1.86819,-0.746672 3.25157,-1.773172 1.3834,-1.026514 3.39081,-1.831766 4.46091,-1.789464 1.07011,0.0423 2.05115,-0.350447 2.18012,-0.872655 0.12895,-0.522265 0.36236,-0.29505 0.51869,0.504913 0.1563,0.800049 0.61454,1.174666 1.01827,0.832564 0.40374,-0.342092 0.77841,-0.327354 0.8326,0.03277 0.0542,0.360125 0.97427,0.522976 2.0446,0.3619 1.07032,-0.161076 1.73613,-0.540604 1.47956,-0.843405 -0.25658,-0.302798 -0.14159,-0.599444 0.25571,-0.659234 0.39722,-0.05978 0.65716,-0.564462 0.57763,-1.12151 -0.0798,-0.55702 0.005,-1.929721 0.18824,-3.05037 0.2725,-1.668329 0.10959,-1.910977 -0.89909,-1.33908 -1.56384,0.886648 -1.71758,-0.05935 -0.37772,-2.323705 1.02937,-1.739516 1.04051,-1.740536 0.81453,-0.07384 -0.22573,1.664718 -0.21459,1.663769 0.75044,-0.06419 0.54349,-0.973197 1.04737,-1.303632 1.13185,-0.742283 0.0837,0.556484 0.42781,0.778311 0.76458,0.492946 0.33678,-0.285366 1.78359,-0.911871 3.21514,-1.392259 3.12304,-1.047969 5.41672,-2.65933 5.26075,-3.695769 -0.0625,-0.415511 -0.68474,-0.431697 -1.38269,-0.03598 -0.87622,0.496798 -1.12637,0.386051 -0.80819,-0.357782 0.25345,-0.592505 1.07483,-1.108961 1.8253,-1.147705 2.34757,-0.121176 2.99649,-0.505355 1.76888,-1.047067 -0.9521,-0.420161 -0.94717,-0.655283 0.0253,-1.206655 0.6643,-0.376644 1.26679,-0.293073 1.33884,0.185716 z m -12.29806,34.222135 c 0.0475,0.561861 0.16169,2.014884 0.25359,3.228957 0.0919,1.214063 0.30251,2.023604 0.46872,1.798887 0.1659,-0.224671 0.92834,-0.0405 1.69432,0.409315 0.88849,0.521738 1.14113,0.512518 0.69783,-0.02543 -0.38218,-0.4638 -0.18209,-1.13401 0.44465,-1.489356 1.48315,-0.840901 1.12748,-3.179209 -0.44783,-2.942137 -0.6677,0.100484 -1.29621,-0.363611 -1.3967,-1.031312 -0.21946,-1.458299 -1.83859,-1.410007 -1.71487,0.05116 z m -47.36935,7.049644 c -0.25822,0.603638 -0.11594,0.749347 0.34792,0.356311 0.43163,-0.365736 1.01698,-0.232028 1.30079,0.29711 0.28378,0.529161 0.78437,0.622111 1.11238,0.206589 0.32801,-0.415531 0.01,-1.013704 -0.70748,-1.329277 -1.6363,-0.720049 -1.53497,-0.743206 -2.05361,0.469267 l 0,0 z m 76.3554,-8.702443 c -3.16016,3.738867 -3.99265,6.731206 -1.82464,6.558588 1.17915,-0.09392 1.17839,-0.03228 -0.006,0.475414 -0.9561,0.409858 -1.23868,1.393626 -0.95046,3.308853 0.47879,3.18146 1.80444,4.10661 2.68942,1.8769 0.55574,-1.40015 0.83449,-1.34352 0.85929,0.17457 0.0183,1.12161 2.39259,1.46409 4.60563,0.66437 1.76528,-0.63792 2.20175,-0.56644 1.83116,0.29991 -0.32576,0.76156 -0.13461,0.95119 0.57841,0.57382 0.58573,-0.31001 0.89717,-1.23777 0.69209,-2.0617 -0.20509,-0.82392 0.0147,-1.82644 0.48837,-2.22781 0.60407,-0.511859 0.32209,-1.035831 -0.94432,-1.754784 -1.78925,-1.01575 -1.7908,-1.025164 -0.1713,-1.041475 0.89886,-0.0091 1.60055,-0.383852 1.55932,-0.832867 -0.0412,-0.449011 0.25978,-1.712468 0.6689,-2.807687 0.89571,-2.397806 0.12498,-3.519276 -2.18023,-3.172361 -0.93818,0.14119 -1.51042,-0.0079 -1.27163,-0.331279 0.65091,-0.881521 -1.47947,-3.393022 -2.71978,-3.206364 -0.59407,0.0894 -2.35101,1.666161 -3.90431,3.503902 l 0,0 z m -30.8523,2.554367 c -0.20811,0.486539 0.007,0.826568 0.4787,0.755626 0.47141,-0.07094 0.8023,-0.493187 0.73531,-0.938325 -0.067,-0.445137 -0.2824,-0.785167 -0.4787,-0.755625 -0.1963,0.02954 -0.52719,0.451785 -0.73531,0.938324 z m -72.7897,10.843668 c -0.18031,0.42152 0.58628,1.3304 1.70352,2.01972 2.02603,1.25005 2.02698,1.24948 0.35976,-0.2176 -0.91937,-0.80902 -1.46465,-1.7512 -1.21173,-2.09373 0.25293,-0.34253 0.23856,-0.58948 -0.0319,-0.54878 -0.27047,0.0407 -0.63931,0.41889 -0.81961,0.84039 l 0,0 z m -7.66526,1.76712 c 0.10081,0.66982 1.72932,0.81211 2.00189,0.17491 0.17682,-0.41339 -0.20878,-0.67181 -0.8569,-0.57427 -0.64811,0.0975 -1.16336,0.27725 -1.14499,0.39936 z m 118.26462,-17.108201 c 0.0295,0.1963 0.45178,0.527187 0.93832,0.7353 0.48654,0.208122 0.82657,-0.0073 0.75562,-0.4787 -0.0709,-0.471402 -0.49318,-0.80229 -0.93832,-0.7353 -0.44514,0.06699 -0.78517,0.2824 -0.75562,0.4787 z m -39.81764,8.71526 c 0.32371,0.756581 0.43763,0.280962 0.25315,-1.056932 -0.18445,-1.337888 -0.44932,-1.956894 -0.58855,-1.375591 -0.13923,0.581313 0.0117,1.675941 0.33543,2.432518 l -4e-5,6e-6 z m -74.16981,9.315491 c 0.16894,1.12257 -0.76383,1.74289 -2.53749,1.68754 -0.39914,-0.0124 -0.42589,0.50613 -0.0595,1.15244 0.36643,0.64629 0.33437,1.22502 -0.0712,1.28606 -0.4056,0.061 -0.48135,0.83586 -0.16831,1.72183 0.3346,0.94706 0.0865,1.88452 -0.60223,2.27498 -0.87074,0.49368 -0.89463,0.78249 -0.0931,1.12538 0.75342,0.32226 0.54856,0.85629 -0.67999,1.77246 -1.67625,1.25004 -1.68002,1.3261 -0.0807,1.63035 1.45538,0.27689 1.77651,-0.34229 2.42469,-4.6757 0.73146,-4.89011 2.17466,-6.95741 3.94467,-5.65046 0.56135,0.4145 0.62887,1.99599 0.18405,4.31121 -0.42282,2.20077 -0.33359,4.81655 0.22413,6.57012 1.57819,4.96201 -2.49668,7.10829 -4.96348,2.61433 l -1.11796,-2.03666 0.45137,2.20816 c 0.2482,1.2145 0.73615,2.1653 1.08419,2.11292 0.34805,-0.0524 0.73431,0.54128 0.85835,1.31925 0.12729,0.79876 0.43136,1.02321 0.69836,0.51564 0.66252,-1.25948 2.81651,-1.43275 4.57879,-0.36833 1.35584,0.81892 1.7795,0.44379 1.281,-1.13426 -0.10295,-0.32593 0.2216,-0.65411 0.72124,-0.7293 0.60691,-0.0913 0.49199,-0.50843 -0.34622,-1.25661 -1.00273,-0.895 -1.10273,-1.47054 -0.49808,-2.86611 0.65306,-1.50721 0.56319,-1.68274 -0.65662,-1.28239 -2.28001,0.74831 -2.98294,-3.01402 -0.74262,-3.97483 1.66653,-0.71474 1.67264,-0.77916 0.10534,-1.11008 -1.54857,-0.32696 -1.53245,-0.43083 0.23259,-1.49881 1.30468,-0.78945 1.46002,-1.09823 0.49781,-0.9895 -0.85367,0.0964 -1.29576,-0.3086 -1.13459,-1.0395 0.14523,-0.65864 -0.16117,-1.37941 -0.68085,-1.60172 -0.51971,-0.22231 -1.05131,-1.1111 -1.18134,-1.9751 -0.13002,-0.864 -0.6006,-1.5161 -1.04574,-1.44911 -0.44514,0.067 -0.72712,0.6681 -0.62664,1.3358 l 10e-6,0 z m 75.39008,-10.517968 c 0.10049,0.667702 0.5254,1.162436 0.94427,1.0994 1.02056,-0.153586 1.56128,-1.527443 0.81738,-2.076734 -1.04864,-0.774288 -1.95,-0.274232 -1.76165,0.977334 z m -72.41609,11.256838 c 0.36486,0.43059 1.02045,0.72916 1.45686,0.66349 0.43642,-0.0657 0.24719,-0.55832 -0.42051,-1.09474 -1.35167,-1.08594 -2.06899,-0.78744 -1.03635,0.43125 l 0,0 z m 5.94678,1.79831 c 0.35551,0.60675 0.51843,0.38612 0.41537,-0.56257 -0.0933,-0.85845 -0.35646,-1.30768 -0.58493,-0.99828 -0.22847,0.30942 -0.15216,1.01179 0.16957,1.56085 l -3e-5,0 z m 70.36186,-8.43678 c 0.61317,0.10676 1.44175,-0.24862 1.84128,-0.789673 0.51021,-0.690971 0.17837,-0.748741 -1.11487,-0.19411 -1.05131,0.450883 -1.36297,0.872953 -0.72641,0.983783 l 0,0 z m -1.54769,3.61367 c -1.37255,-0.82346 -1.39766,-0.75195 -0.26931,0.76686 1.52335,2.0505 1.4592,2.05985 3.0157,-0.43958 1.03374,-1.65997 1.03719,-1.79553 0.0186,-0.72911 -1.05374,1.10316 -1.49025,1.16659 -2.76495,0.40184 l 0,0 z m -68.07707,11.46387 c 0.0231,0.15358 0.96589,0.84971 2.09505,1.54696 l 2.05304,1.26773 -1.81582,-1.58898 c -1.70643,-1.49324 -2.42974,-1.87337 -2.33227,-1.22571 z m 74.39857,-7.96438 c 0.30825,0.52262 0.42344,0.0397 0.25597,-1.0731 -0.16748,-1.11284 -0.41969,-1.54045 -0.56047,-0.95024 -0.14078,0.5902 -0.004,1.50071 0.3045,2.02334 z m -74.9873,10.51069 c 2.60977,2.0559 2.63741,2.45681 0.40259,5.84136 l -1.8536,2.80724 2.2726,-2.77294 c 1.24994,-1.52511 2.21788,-3.13658 2.151,-3.58103 -0.12553,-0.83413 -3.89088,-4.07203 -4.60958,-3.96387 -0.22256,0.0335 0.51407,0.78465 1.63699,1.66924 l 0,0 z m -17.50186,7.49482 c 0.35551,0.60675 0.51843,0.38612 0.41537,-0.56257 -0.0933,-0.85844 -0.35646,-1.30768 -0.58493,-0.99827 -0.22847,0.30941 -0.15216,1.01179 0.16957,1.56084 l -3e-5,10e-6 z m -6.42012,1.70496 c 0.84727,0.33648 1.66244,1.22671 1.81149,1.97829 0.17451,0.88007 0.36388,0.97434 0.53193,0.26483 0.30287,-1.27872 -1.64489,-3.25387 -2.97503,-3.01686 -0.49988,0.0891 -0.21565,0.43724 0.63161,0.77374 z m 96.37557,-12.69036 c -0.76472,0.43087 -0.53705,0.57509 0.68616,0.43466 1.22988,-0.1412 1.7566,-0.67432 1.60508,-1.62462 -0.13839,-0.87258 -0.40204,-1.03903 -0.68616,-0.43467 -0.25335,0.53889 -0.97563,1.26996 -1.60508,1.62463 z m -86.83633,33.04795 c -1.10625,1.83154 0.50043,2.25685 3.06728,0.81198 1.70921,-0.96211 1.8766,-1.31702 0.83699,-1.77454 -1.83895,-0.8093 -3.00819,-0.52103 -3.90427,0.96256 z m 108.18014,-14.9651 c -0.20811,0.48654 -0.0142,0.8298 0.43094,0.76281 0.44514,-0.067 0.97962,-0.51987 1.18773,-1.00641 0.20813,-0.48654 0.0142,-0.8298 -0.43093,-0.76281 -0.44513,0.067 -0.97962,0.51987 -1.18774,1.00641 z"
       id="path9065"
       inkscape:connector-curvature="0" />
    <image
       y="1390.7457"
       x="-3647.9661"
       id="image9635"
       xlink:href="file:///Users/mpietal/Downloads/planets-of-solarsystem.jpg"
       height="1548"
       width="7940" />
    <path
       sodipodi:type="arc"
       style="fill:#3232d4;fill-opacity:1;stroke:none"
       id="path9638"
       sodipodi:cx="-700"
       sodipodi:cy="680"
       sodipodi:rx="100"
       sodipodi:ry="100"
       d="m -600,680 a 100,100 0 1 1 -200,0 100,100 0 1 1 200,0 z"
       inkscape:export-filename="/Users/mpietal/Documents/development/GalCon/asset-source-files/path9669.png"
       inkscape:export-xdpi="180"
       inkscape:export-ydpi="180" />
    <path
       inkscape:connector-curvature="0"
       id="path9651"
       d="m -728.41932,759.61713 c 0,-0.48418 -0.59914,-0.65042 -1.33141,-0.36942 -0.73228,0.28101 -1.83719,0.0912 -2.45535,-0.42187 -0.77134,-0.64016 -1.44489,-0.67081 -2.147,-0.0977 -0.74107,0.60491 -1.61191,0.1874 -3.15939,-1.51469 -2.3456,-2.57996 -2.16775,-4.02796 0.22839,-1.85947 2.88859,2.61414 1.4673,0.14462 -1.55995,-2.71045 -4.27918,-4.03578 -5.76046,-4.71948 -7.37752,-3.40517 -1.13866,0.92548 -1.25514,0.88365 -0.81478,-0.29259 0.2826,-0.75484 0.005,-1.79461 -0.61656,-2.31058 -0.62171,-0.51597 -0.97199,-1.37158 -0.7784,-1.90135 0.19359,-0.52977 0.0187,-1.48706 -0.38872,-2.1273 -0.60515,-0.95106 -1.26674,-0.7264 -3.61534,1.22767 -1.58105,1.31547 -2.90123,2.85213 -2.93373,3.41482 -0.0845,1.46231 -2.24592,1.26643 -2.83032,-0.25649 -0.27005,-0.70375 -0.79868,-1.08939 -1.17473,-0.85699 -0.37605,0.23242 -1.31881,-1.01689 -2.09503,-2.77622 -0.77622,-1.75934 -2.58888,-4.16291 -4.02815,-5.34126 -1.43926,-1.17836 -4.2742,-4.5949 -6.29986,-7.59233 -2.02566,-2.99743 -5.22268,-6.47649 -7.10447,-7.73125 -1.8818,-1.25476 -4.26198,-3.65539 -5.2893,-5.33472 -1.02731,-1.67935 -2.30897,-3.50701 -2.84814,-4.06148 -1.60654,-1.65215 -3.81875,-8.23047 -3.35901,-9.98851 0.25493,-0.97483 0.0485,-1.56216 -0.51198,-1.45674 -0.51652,0.0971 -0.93912,-0.74413 -0.93912,-1.8695 0,-1.12537 -0.55246,-2.49479 -1.22768,-3.04316 -1.04285,-0.84692 -1.0501,-1.00095 -0.0482,-1.02306 0.85046,-0.0187 0.7363,-0.36124 -0.40923,-1.22768 -1.06285,-0.80389 -1.217,-1.21025 -0.4657,-1.22767 1.41782,-0.0328 10.87645,9.61499 9.78356,9.97929 -0.50267,0.16755 -0.42852,1.10055 0.19648,2.47228 0.55211,1.21175 1.31828,2.00884 1.7026,1.77131 0.38432,-0.23753 0.69877,-0.0414 0.69877,0.43591 0,1.10173 8.3615,0.7726 9.19503,-0.36194 0.33072,-0.45015 0.61258,-0.0818 0.62637,0.81845 0.0208,1.35776 0.16036,1.42755 0.81845,0.40922 0.68867,-1.06564 0.79504,-1.05019 0.80592,0.11705 0.007,0.7396 0.56498,1.55672 1.24021,1.81583 0.74782,0.28696 1.22767,0.002 1.22767,-0.73089 0,-0.66109 0.73661,-1.20199 1.6369,-1.20199 0.9003,0 1.6369,0.3683 1.6369,0.81845 0,0.45015 -0.55245,0.81845 -1.22767,0.81845 -0.67523,0 -1.22768,0.3683 -1.22768,0.81845 0,1.2026 2.92508,0.99714 3.98493,-0.27992 0.50137,-0.60409 0.66923,-1.3407 0.37304,-1.6369 -0.2962,-0.29618 -0.0927,-0.53853 0.4522,-0.53853 0.54491,0 0.88252,-0.59702 0.75025,-1.32673 -0.29767,-1.64217 4.92798,-3.37397 9.62489,-3.18972 3.44405,0.13511 4.47409,-0.63419 4.36337,-3.25882 -0.0578,-1.37063 -0.18566,-1.30406 -0.78591,0.40922 -0.62402,1.78113 -0.68049,1.67513 -0.43601,-0.81845 0.22018,-2.24569 -0.18199,-3.30226 -1.86151,-4.89047 -1.17831,-1.11425 -2.46379,-1.92786 -2.85662,-1.80804 -0.39284,0.11982 -0.49835,-0.34476 -0.23449,-1.03239 0.26855,-0.6998 -0.36663,-2.23423 -1.44275,-3.48528 -1.66788,-1.93903 -2.10014,-2.08762 -3.2637,-1.12195 -0.73766,0.6122 -1.15134,1.30295 -0.91929,1.53499 0.6867,0.68671 -1.31564,2.64428 -2.16672,2.11827 -0.42925,-0.26529 -0.71219,0.015 -0.62875,0.62285 0.40916,2.98063 -0.11195,3.23817 -2.49492,1.23302 -1.92192,-1.61717 -3.13876,-1.99555 -5.62291,-1.74842 -2.54047,0.25274 -3.5401,-0.0783 -5.03232,-1.66675 -1.02417,-1.09017 -2.17689,-1.78759 -2.5616,-1.54982 -0.38471,0.23776 -0.69948,-0.30774 -0.69948,-1.21223 0,-0.9045 0.49869,-1.93907 1.10819,-2.29905 1.31399,-0.77604 3.41894,-4.44613 3.12729,-5.45256 -0.1125,-0.38819 0.45378,-1.21778 1.2584,-1.84352 1.37842,-1.07198 1.36837,-1.11009 -0.17395,-0.65967 -1.6369,0.47805 -1.6369,0.47805 0,-0.85167 0.90029,-0.73135 1.66318,-1.59009 1.6953,-1.90833 0.17979,-1.78119 2.78755,-5.85888 5.46613,-8.54727 1.68806,-1.69422 3.06919,-3.63286 3.06919,-4.30808 0,-0.67522 0.46038,-1.23332 1.02306,-1.24021 0.73702,-0.009 0.70611,-0.21327 -0.11057,-0.73048 -0.90937,-0.57591 -0.7989,-0.89709 0.55841,-1.6235 1.52172,-0.8144 2.85083,-3.20375 3.00871,-5.40876 0.0322,-0.45015 0.74487,-0.69875 1.58365,-0.55244 1.13957,0.19877 1.39117,-0.0829 0.99541,-1.11419 -0.37215,-0.9698 -0.18976,-1.24978 0.61336,-0.94159 0.62865,0.24123 1.92253,-0.1074 2.8753,-0.77474 0.95276,-0.66734 2.15685,-0.95095 2.67576,-0.63025 0.58404,0.36095 0.72099,0.22311 0.35949,-0.36181 -0.32119,-0.5197 -0.17221,-0.94491 0.33107,-0.94491 0.50328,0 0.68582,-0.3709 0.40565,-0.82423 -0.28017,-0.45332 0.0664,-1.04518 0.77015,-1.31524 0.70375,-0.27005 1.28519,-1.09613 1.29208,-1.83573 0.007,-0.77137 0.26892,-0.99576 0.61384,-0.52627 0.81761,1.11287 4.27026,1.16454 4.34186,0.065 0.0316,-0.48589 0.37405,-0.14683 0.76092,0.75347 0.65315,1.51996 0.70751,1.4956 0.76093,-0.34102 0.0663,-2.2796 0.77063,-1.92167 1.26446,0.64258 0.47022,2.44167 1.22839,3.49044 2.12341,2.93729 0.41905,-0.25899 0.7619,-0.0808 0.7619,0.39587 0,1.24183 1.31804,1.06869 2.74765,-0.36092 1.2738,-1.2738 2.54455,-1.68865 1.88028,-0.61384 -0.57744,0.93433 6.33363,0.73296 7.02245,-0.20461 0.33072,-0.45015 0.61258,-0.0818 0.62637,0.81845 0.0208,1.35777 0.16036,1.42755 0.81845,0.40922 0.52892,-0.81845 0.79756,-0.88665 0.80592,-0.20461 0.007,0.56268 0.56498,1.02306 1.24021,1.02306 0.67522,0 1.22767,-0.3683 1.22767,-0.81845 0,-0.45014 0.5409,-0.81845 1.20199,-0.81845 0.7949,0 1.02793,0.48508 0.68805,1.43229 -0.28267,0.78776 -0.22269,1.16902 0.13329,0.84725 0.35599,-0.32178 1.35897,-0.20414 2.22885,0.2614 1.1502,0.61557 1.9344,0.55366 2.87502,-0.22699 1.12785,-0.93603 1.22071,-0.84436 0.72544,0.71612 -0.43829,1.3809 -0.0787,2.11017 1.57474,3.19353 1.67121,1.09502 2.03279,1.84206 1.64308,3.39475 -0.39786,1.5852 0.13267,2.58688 2.60406,4.91668 3.27473,3.08713 4.15584,6.01068 2.28057,7.56701 -0.61913,0.51383 -0.93832,1.42251 -0.70932,2.01929 0.50708,1.32141 -1.01261,2.42974 -1.73309,1.26397 -0.78388,-1.26832 -2.29069,-0.99123 -1.7844,0.32814 0.24481,0.63797 -0.1223,1.37768 -0.8158,1.6438 -0.81543,0.31291 -1.06144,0.98746 -0.69631,1.90925 0.31053,0.78396 0.71269,2.15712 0.89369,3.05148 0.181,0.89434 1.16213,2.30976 2.18028,3.14536 1.01815,0.83562 1.29384,1.34587 0.61264,1.13392 -0.98191,-0.30553 -1.21454,0.32803 -1.12265,3.0576 0.16272,4.83423 0.9227,6.75076 2.87987,7.26257 1.13495,0.29679 1.47855,0.79752 1.04347,1.52065 -0.43866,0.72908 -0.1621,0.68274 0.85416,-0.1431 1.3991,-1.13696 1.46059,-1.08046 0.8909,0.81845 -0.60024,2.00073 -0.58558,2.00843 0.76721,0.40281 1.20217,-1.42686 1.31926,-1.44766 0.91247,-0.16211 -0.27281,0.86216 -0.13056,1.26708 0.34241,0.97476 0.44499,-0.27501 0.80908,-0.0649 0.80908,0.46694 0,0.71833 0.28372,0.7315 1.10344,0.0512 0.84017,-0.69729 1.44025,-0.5436 2.51512,0.64411 1.33844,1.47896 1.33427,1.60491 -0.0804,2.42758 -1.43369,0.83374 -1.43211,0.86865 0.0404,0.89256 1.26881,0.0206 1.35719,0.23614 0.51363,1.25257 -0.81288,0.97945 -0.81288,1.47589 0,2.45535 0.56038,0.67522 0.77511,1.22767 0.47717,1.22767 -0.29794,0 -0.0668,0.53013 0.51362,1.17806 0.91784,1.02457 1.17554,1.02208 1.97796,-0.0191 0.77672,-1.00782 1.0032,-0.90291 1.43226,0.66346 0.42457,1.54998 0.64419,1.65564 1.31558,0.6329 0.53894,-0.82095 0.8101,-0.88874 0.81848,-0.20461 0.007,0.56268 0.52711,1.02306 1.15604,1.02306 1.49395,0 6.22254,-4.16167 6.22254,-5.47649 0,-0.56085 0.46038,-0.85779 1.02306,-0.65986 4.53127,1.59394 11.62708,-0.12277 10.68245,-2.58444 -0.2929,-0.76327 -0.0101,-0.95825 0.88934,-0.6131 0.82746,0.31753 1.3188,0.0773 1.3188,-0.64482 0,-0.84161 0.79985,-1.05752 2.97628,-0.80343 1.89297,0.22099 2.78838,0.0435 2.46004,-0.48782 -0.28392,-0.45939 0.0751,-1.06219 0.79788,-1.33954 0.94523,-0.36271 1.17882,-0.15172 0.83217,0.75164 -0.38513,1.00361 -0.17843,1.09346 1.02894,0.4473 0.83098,-0.44473 1.70758,-0.61189 1.948,-0.37146 0.24043,0.24043 1.25773,-0.0488 2.26067,-0.64263 1.44294,-0.85441 1.90087,-0.86625 2.19403,-0.0567 0.64759,1.78819 2.00777,1.10646 1.42923,-0.71633 -0.37149,-1.1705 -0.25569,-1.55622 0.35408,-1.17937 0.49837,0.30801 0.90613,1.09074 0.90613,1.73939 0,0.64866 0.66288,1.17937 1.47307,1.17937 1.82399,0 8.39511,-4.17286 7.88102,-5.00469 -0.2062,-0.33363 0.3893,-0.84915 1.32334,-1.1456 1.40742,-0.44671 1.60471,-0.96491 1.15204,-3.0259 -0.37828,-1.72233 -0.26768,-2.31475 0.35976,-1.92697 0.49828,0.30796 0.91161,1.18272 0.9185,1.94391 0.0106,1.17306 0.12877,1.20017 0.77525,0.1779 0.44449,-0.70286 0.45729,-1.39483 0.0307,-1.6585 -0.42877,-0.26499 -0.42331,-0.95196 0.0132,-1.65823 0.53635,-0.86783 0.1502,-1.7171 -1.37761,-3.02992 -1.99792,-1.71676 -4.13106,-1.8309 -3.10209,-0.16599 0.60991,0.98686 -0.51377,0.95633 -2.08108,-0.0566 -0.98948,-0.63945 -1.00599,-0.79582 -0.0851,-0.80592 0.68919,-0.007 0.23303,-0.85547 -1.14954,-2.1368 -1.84064,-1.70584 -2.0657,-2.26761 -1.14257,-2.85204 0.63225,-0.40028 0.86087,-0.73342 0.50804,-0.74031 -0.35283,-0.007 0.84416,-1.37852 2.65996,-3.04805 3.18545,-2.92889 4.23524,-5.14902 2.43469,-5.14902 -0.47671,0 -0.63912,-0.3683 -0.36092,-0.81845 0.27821,-0.45015 -0.0568,-0.81845 -0.74446,-0.81845 -0.72285,0 -1.06863,-0.47337 -0.81968,-1.12214 0.23683,-0.61718 -0.16294,-1.7157 -0.8884,-2.44115 -0.72545,-0.72545 -1.46039,-2.05319 -1.6332,-2.95054 -0.17281,-0.89735 -1.61627,-2.77477 -3.20768,-4.17204 -1.59141,-1.39728 -2.8597,-2.78722 -2.81842,-3.08875 0.24887,-1.81778 -0.32458,-1.91846 -1.26472,-0.22204 l -1.08793,1.96311 -0.37821,-2.57695 c -0.20802,-1.41732 -0.0737,-2.57695 0.29848,-2.57695 0.37219,0 0.6767,-0.52176 0.6767,-1.15947 0,-0.63771 0.46038,-1.35294 1.02306,-1.58939 0.73143,-0.30738 0.61255,-0.68962 -0.41706,-1.34094 -0.94161,-0.59566 -1.31511,-1.60044 -1.07897,-2.90269 0.23388,-1.28975 -0.12392,-2.27467 -1.01522,-2.79463 -0.75702,-0.44162 -0.92756,-0.81415 -0.37901,-0.82784 0.54855,-0.0137 0.78985,-0.5657 0.5362,-1.22668 -0.25364,-0.66099 -0.70246,-1.16983 -0.99738,-1.13076 -1.55367,0.20585 -1.7483,-0.25529 -0.59466,-1.40893 1.47931,-1.47931 1.72761,-4.44302 0.37223,-4.44302 -0.51095,0 -0.72517,-0.72172 -0.48584,-1.6369 0.23543,-0.90029 0.0942,-1.6369 -0.31377,-1.6369 -0.40801,0 -0.69822,-0.27622 -0.64491,-0.61383 0.0533,-0.33762 0.007,-0.89007 -0.10231,-1.22768 -0.4329,-1.33381 -0.61719,-2.34275 -0.82221,-4.50147 -0.19087,-2.00969 -0.25193,-2.05222 -0.57005,-0.39709 -0.41716,2.1704 -1.87615,1.64605 -1.87615,-0.67428 0,-0.96254 0.56445,-1.59354 1.43229,-1.60113 0.83379,-0.007 1.07885,-0.26379 0.58645,-0.61384 -0.46521,-0.33072 -0.87955,-1.24583 -0.92076,-2.03359 -0.1463,-2.79689 -0.29543,-3.0699 -1.71182,-3.1338 -0.85564,-0.0386 -1.02039,-0.23082 -0.40922,-0.47743 0.56268,-0.22705 1.02306,-1.11873 1.02306,-1.98151 0,-0.86278 0.3683,-1.5687 0.81845,-1.5687 0.45015,0 0.81845,-0.57419 0.81845,-1.27597 0,-0.73993 -0.38845,-1.03591 -0.92463,-0.70453 -0.56276,0.3478 -0.77222,0.12647 -0.5352,-0.56553 0.21418,-0.62535 0.11116,-2.12321 -0.22895,-3.3286 -0.44285,-1.56946 -0.29092,-2.31726 0.5352,-2.63427 0.63447,-0.24347 1.15358,-0.94748 1.15358,-1.56446 0,-0.73325 0.85041,-1.07119 2.45535,-0.97571 1.35044,0.0803 2.45535,-0.15147 2.45535,-0.51512 0,-0.36365 0.55034,-0.45 1.22298,-0.19188 0.67263,0.25811 0.97024,0.89108 0.66134,1.4066 -0.34066,0.56851 -0.0562,0.52808 0.72288,-0.10276 1.0916,-0.88387 1.92795,-0.41003 5.56889,3.15509 2.35641,2.30733 4.80064,4.27092 5.43162,4.36353 1.34229,0.197 7.67199,6.19738 7.67199,7.27282 0,0.40326 1.01283,1.76273 2.25074,3.02103 4.10141,4.16901 6.12233,7.38081 5.68835,9.04037 -0.23121,0.88415 -0.12685,1.42614 0.2319,1.20441 1.26401,-0.78119 6.77477,12.8054 6.00624,14.80817 -0.25164,0.65575 0.24811,1.82578 1.11056,2.60006 2.31857,2.08154 5.20328,6.4323 5.67054,8.55239 1.59661,7.24437 1.95542,9.61484 2.29378,15.1537 0.17172,2.81097 0.0437,4.94491 -0.28446,4.74209 -0.32818,-0.20283 -0.59669,0.15128 -0.59669,0.7869 0,0.63562 0.28464,0.97976 0.63252,0.76476 0.34787,-0.21501 0.57642,0.35365 0.50786,1.26367 -0.0685,0.91003 -0.47594,1.65459 -0.90532,1.65459 -0.42938,0 -0.54088,0.23981 -0.24778,0.53291 0.29311,0.2931 -0.10589,1.018 -0.88665,1.61087 -0.87305,0.66297 -1.0257,1.08799 -0.3965,1.104 0.56268,0.0143 1.02306,0.41606 1.02306,0.89278 0,0.47671 -0.29382,0.68516 -0.65292,0.46322 -0.3591,-0.22194 -1.1489,-0.097 -1.7551,0.27767 -0.88929,0.54961 -0.76316,1.22976 0.65291,3.52101 1.90449,3.08153 2.22308,4.26012 0.93666,3.46507 -1.42679,-0.88181 -0.8838,0.84888 0.85034,2.71025 0.91782,0.98517 1.26439,1.79122 0.77014,1.79122 -0.49425,0 -0.67822,0.35663 -0.40884,0.79252 0.26939,0.43588 -0.26132,2.44133 -1.17937,4.45656 -0.91805,2.01524 -1.66917,4.21499 -1.66917,4.88834 0,0.67335 -0.3683,1.4519 -0.81845,1.73011 -0.45015,0.2782 -0.81845,1.20978 -0.81845,2.07017 0,1.99303 -3.91682,10.6158 -4.82214,10.6158 -0.37505,0 -0.57763,0.94999 -0.45018,2.11107 0.14395,1.31133 -0.44128,2.78408 -1.54484,3.88764 -0.97711,0.97711 -1.77657,2.03438 -1.77657,2.34948 0,0.31511 -0.46037,1.0333 -1.02306,1.59598 -0.56268,0.56268 -1.02306,1.43766 -1.02306,1.94438 0,0.50672 -0.92076,1.78632 -2.04613,2.84355 -1.12536,1.05723 -2.04612,2.22592 -2.04612,2.59708 0,0.37117 -1.38113,2.10754 -3.06919,3.85862 -1.68805,1.75107 -3.80579,4.07698 -4.70609,5.16868 -2.36706,2.87031 -7.31576,5.6952 -8.28283,4.72813 -0.43583,-0.43582 -1.78898,-0.87489 -3.007,-0.97569 -2.16004,-0.17877 -2.56727,-0.71606 -2.25682,-2.97759 0.0939,-0.68427 -0.23383,-0.86692 -0.86057,-0.47958 -0.70584,0.43624 -0.85407,0.21334 -0.48965,-0.73631 0.28744,-0.74907 0.14415,-1.36194 -0.31844,-1.36194 -0.46259,0 -0.64386,-0.31908 -0.40284,-0.70906 0.24103,-0.38999 -0.28025,-1.35929 -1.1584,-2.154 -1.4664,-1.32708 -1.75674,-1.34002 -3.55965,-0.1587 -1.56719,1.02686 -1.86294,1.75003 -1.46666,3.58628 l 0.49636,2.30006 0.26659,-2.19085 c 0.31261,-2.56889 2.13077,-4.34946 3.54731,-3.47398 0.6871,0.42465 0.44535,0.81752 -0.78259,1.27176 -1.39075,0.51447 -1.77956,1.32991 -1.78936,3.75286 -0.007,1.90162 -0.26862,2.69201 -0.6765,2.04927 -0.47938,-0.75542 -0.93662,-0.44787 -1.64476,1.10634 -0.80886,1.77526 -1.19246,1.97699 -2.18809,1.15069 -0.664,-0.55107 -1.20727,-1.6198 -1.20727,-2.37494 0,-0.75515 -0.46038,-1.86917 -1.02306,-2.4756 -0.8349,-0.8998 -0.76117,-1.01049 0.40088,-0.6018 1.03652,0.36454 1.55852,-0.0354 1.91856,-1.46992 0.59769,-2.38139 -0.0959,-3.69632 -1.95852,-3.71319 -1.19271,-0.0108 -1.21431,-0.12219 -0.15631,-0.80592 0.89209,-0.57651 0.93481,-0.79681 0.15631,-0.80592 -0.58925,-0.007 -0.85947,-0.35539 -0.60049,-0.77442 0.25899,-0.41905 0.14596,-0.96271 -0.25116,-1.20814 -0.39712,-0.24544 -0.54434,-1.3758 -0.32716,-2.51191 0.30404,-1.5905 0.0556,-2.06566 -1.08007,-2.06566 -0.81123,0 -2.2875,-0.76334 -3.2806,-1.69631 -0.9931,-0.93298 -2.34266,-1.77514 -2.99903,-1.87147 -0.65637,-0.0963 -2.2148,-0.8444 -3.46319,-1.66238 -1.24839,-0.81798 -2.03429,-1.10617 -1.74645,-0.64043 0.28784,0.46573 0.14903,1.07813 -0.30846,1.36087 -0.45749,0.28274 -0.87784,0.12404 -0.93411,-0.35267 -0.0562,-0.47672 -0.19438,-1.23506 -0.30692,-1.68521 -0.11253,-0.45015 -0.25628,-1.27883 -0.31944,-1.84151 -0.0873,-0.77764 -0.28086,-0.76118 -0.80687,0.0687 -0.54429,0.85864 -0.81308,0.77617 -1.25916,-0.38629 -0.48589,-1.2662 -0.68705,-1.30535 -1.40389,-0.27324 -0.63304,0.91146 -0.93778,0.95568 -1.25185,0.18168 -0.22832,-0.56269 -1.58141,-0.99718 -3.00687,-0.96554 -2.1901,0.0486 -2.33809,0.16653 -0.95487,0.76092 1.10271,0.47385 1.23627,0.72626 0.40923,0.77346 -1.09126,0.0623 -1.09126,0.15821 0,0.86344 0.70435,0.45519 0.82011,0.79873 0.27155,0.80592 -1.87772,0.0246 -3.54535,-1.00062 -3.54535,-2.17962 0,-1.03481 -0.16923,-1.02933 -1.23863,0.0401 -1.63725,1.63724 -2.57479,6.24434 -1.27072,6.24434 0.53298,0 0.74143,0.3683 0.46322,0.81845 -0.2782,0.45014 -0.22254,1.2768 0.12369,1.83702 0.8979,1.45285 0.92937,7.15461 0.0364,6.60275 -0.41991,-0.25951 -0.50109,0.30735 -0.18613,1.29969 0.39255,1.23683 0.23615,1.69302 -0.52616,1.53478 -0.59661,-0.12385 -0.98684,0.25269 -0.86718,0.83674 0.11967,0.58406 -0.24864,1.0008 -0.81845,0.9261 -2.23204,-0.29263 -3.01059,0.11066 -2.54681,1.31926 0.26617,0.69363 0.16254,1.17036 -0.2303,1.0594 -0.39284,-0.11096 -1.9585,0.46034 -3.47924,1.26954 -1.52076,0.80921 -3.62565,1.30676 -4.67754,1.10568 -1.0519,-0.20108 -2.08046,0.0413 -2.28571,0.5385 -0.20523,0.49726 -0.40223,0.23784 -0.43777,-0.57648 -0.0355,-0.8144 -0.43289,-1.25304 -0.88304,-0.97483 -0.45015,0.2782 -0.81845,0.20787 -0.81845,-0.15631 0,-0.36418 -0.88559,-0.66214 -1.96797,-0.66214 -1.08238,0 -1.79725,0.27622 -1.5886,0.61383 0.20866,0.33761 0.0508,0.61384 -0.35097,0.61384 -0.40169,0 -0.73384,0.46038 -0.7381,1.02306 -0.004,0.56269 -0.29231,1.90746 -0.64009,2.98839 -0.51774,1.6092 -0.39275,1.87339 0.68981,1.45797 1.67837,-0.64405 1.68962,0.31429 0.0277,2.35404 -1.27677,1.56696 -1.28794,1.56631 -0.81644,-0.0482 0.47095,-1.61259 0.45979,-1.61331 -0.75164,-0.0482 -0.68227,0.88148 -1.22971,1.13325 -1.22971,0.56558 0,-0.56275 -0.30722,-0.83331 -0.68271,-0.60124 -0.3755,0.23207 -1.89943,0.63629 -3.38653,0.89829 -3.24422,0.57154 -5.75216,1.82362 -5.75216,2.87173 0,0.42019 0.61287,0.52879 1.36194,0.24135 0.94039,-0.36087 1.17127,-0.21413 0.74594,0.47407 -0.3388,0.54819 -1.22789,0.93666 -1.97577,0.86329 -2.33946,-0.22953 -3.03833,0.0538 -1.905,0.77217 0.87897,0.55717 0.8391,0.78894 -0.20461,1.18945 -0.71296,0.27359 -1.2963,0.10129 -1.2963,-0.38289 z m 17.25394,-32.01091 c 0.0366,-0.56268 0.13996,-2.01651 0.22976,-3.23074 0.0898,-1.21422 0.002,-2.04609 -0.1958,-1.84861 -0.19749,0.19748 -0.92403,-0.0981 -1.61454,-0.6569 -0.80095,-0.64815 -1.05215,-0.67663 -0.69384,-0.0787 0.3089,0.51551 0.0113,1.14848 -0.66134,1.4066 -1.59178,0.61082 -1.58805,2.97602 0.005,2.97602 0.67522,0 1.22767,0.55246 1.22767,1.22768 0,1.47472 1.60829,1.66792 1.70339,0.20461 z m 47.89099,0.0782 c 0.34517,-0.55849 0.22616,-0.72375 -0.29102,-0.40412 -0.48125,0.29743 -1.04019,0.0781 -1.24209,-0.48738 -0.20188,-0.5655 -0.68306,-0.73191 -1.06925,-0.36983 -0.3862,0.36209 -0.1604,1.00098 0.50178,1.41976 1.51093,0.95554 1.40728,0.96336 2.10058,-0.15843 l 0,0 z m -76.80024,-2.75741 c 3.68138,-3.22695 4.94991,-6.06208 2.78035,-6.21402 -1.18,-0.0826 -1.17007,-0.14344 0.0766,-0.46924 1.00645,-0.26301 1.43229,-1.19377 1.43229,-3.13056 0,-3.21729 -1.17321,-4.32942 -2.38016,-2.25623 -0.75791,1.30185 -1.02513,1.20437 -0.82374,-0.30051 0.1488,-1.11184 -2.14807,-1.80384 -4.45548,-1.34236 -1.84055,0.36811 -2.26152,0.23247 -1.76613,-0.56908 0.43546,-0.7046 0.27466,-0.92057 -0.48658,-0.65351 -0.62534,0.21939 -1.07138,1.09048 -0.9912,1.93575 0.0802,0.84527 -0.28633,1.80392 -0.81446,2.13033 -0.67352,0.41626 -0.47266,0.97636 0.67266,1.87577 1.61817,1.27071 1.6183,1.28025 0.0144,1.05537 -0.89019,-0.12481 -1.63985,0.14139 -1.6659,0.59154 -0.0261,0.45014 -0.51173,1.65474 -1.07928,2.67688 -1.24257,2.23781 -0.64731,3.46149 1.68385,3.46149 0.94875,0 1.49243,0.23258 1.20817,0.51683 -0.77484,0.77484 0.95806,3.57541 2.21234,3.57541 0.60076,0 2.57278,-1.29774 4.38227,-2.88386 l 0,0 z m 30.88889,2.06541 c 0.2782,-0.45015 0.11579,-0.81845 -0.36092,-0.81845 -0.47672,0 -0.86676,0.3683 -0.86676,0.81845 0,0.45015 0.16241,0.81845 0.36092,0.81845 0.19851,0 0.58855,-0.3683 0.86676,-0.81845 z m 73.59289,0.10939 c 0.24103,-0.38999 -0.38177,-1.40283 -1.38398,-2.25074 -1.81745,-1.53764 -1.81847,-1.53722 -0.38814,0.16164 0.78874,0.93683 1.18773,1.94966 0.88666,2.25074 -0.30109,0.30108 -0.32363,0.54742 -0.0501,0.54742 0.27352,0 0.69453,-0.31908 0.93555,-0.70906 l 0,0 z m 7.84288,-0.60672 c 0,-0.67737 -1.58921,-1.06042 -1.95357,-0.47088 -0.23637,0.38247 0.10648,0.6954 0.7619,0.6954 0.65541,0 1.19167,-0.10104 1.19167,-0.22452 z m -119.4937,-0.68204 c 0,-0.19851 -0.3683,-0.58855 -0.81845,-0.86675 -0.45015,-0.27821 -0.81845,-0.1158 -0.81845,0.36092 0,0.47671 0.3683,0.86675 0.81845,0.86675 0.45015,0 0.81845,-0.16241 0.81845,-0.36092 z m 40.67123,-2.69269 c -0.20751,-0.79633 -0.39094,-0.34296 -0.40762,1.00749 -0.0167,1.35044 0.1531,2.00197 0.37729,1.44786 0.22419,-0.55412 0.23784,-1.65902 0.0303,-2.45535 l 4e-5,0 z m 74.73022,1.82594 c 0,-1.13521 1.0147,-1.60982 2.76037,-1.29113 0.39284,0.0717 0.49647,-0.43712 0.2303,-1.13076 -0.26617,-0.69362 -0.14835,-1.26114 0.26183,-1.26114 0.41017,0 0.60038,-0.75492 0.42268,-1.67761 -0.18994,-0.98631 0.19496,-1.8764 0.93407,-2.16003 0.93452,-0.3586 1.00112,-0.64064 0.2595,-1.09899 -0.69707,-0.4308 -0.41502,-0.92839 0.93619,-1.65153 1.84361,-0.98667 1.85866,-1.06132 0.32243,-1.60019 -1.39797,-0.49039 -1.80767,0.0741 -3.09352,4.2628 -1.45104,4.72681 -3.18582,6.55631 -4.74162,5.00051 -0.49342,-0.49342 -0.32483,-2.06735 0.45958,-4.29059 0.74562,-2.11334 1.04665,-4.71328 0.7561,-6.53032 -0.82218,-5.14162 3.52671,-6.65759 5.29727,-1.84657 l 0.80242,2.18035 -0.11773,-2.25074 c -0.0647,-1.23791 -0.40572,-2.25074 -0.75768,-2.25074 -0.35197,0 -0.64558,-0.64453 -0.65247,-1.43229 -0.007,-0.80881 -0.27428,-1.07601 -0.61384,-0.61383 -0.84258,1.14686 -2.99837,0.99765 -4.58262,-0.31717 -1.21888,-1.01157 -1.69364,-0.70367 -1.43553,0.931 0.0533,0.33762 -0.31648,0.61384 -0.82174,0.61384 -0.61375,0 -0.56218,0.42955 0.15536,1.29414 0.85837,1.03426 0.87161,1.61827 0.066,2.90832 -0.87008,1.39324 -0.80733,1.58019 0.45847,1.36583 2.36599,-0.40068 2.50119,3.42436 0.14283,4.04108 -1.75433,0.45877 -1.76996,0.52157 -0.26936,1.08204 1.48267,0.55377 1.45127,0.65409 -0.45305,1.44751 -1.40764,0.5865 -1.6072,0.86872 -0.63952,0.9044 0.85851,0.0317 1.23541,0.49799 0.96726,1.19677 -0.24163,0.62969 -0.0459,1.38803 0.43491,1.68521 0.48084,0.29717 0.87425,1.25518 0.87425,2.12891 0,0.87372 0.3683,1.58859 0.81845,1.58859 0.45015,0 0.81845,-0.55245 0.81845,-1.22767 l -10e-6,0 z m -76.11585,-0.81845 c 0,-0.67522 -0.34656,-1.22768 -0.77014,-1.22768 -1.03205,0 -1.77121,1.27809 -1.11733,1.93197 0.92173,0.92172 1.88747,0.56137 1.88747,-0.70429 z m 73.28493,-0.35478 c -0.29672,-0.48009 -0.90057,-0.8729 -1.3419,-0.8729 -0.44133,0 -0.32752,0.51531 0.25291,1.14513 1.17502,1.275 1.92877,1.08657 1.08899,-0.27223 l 0,0 z m -5.61294,-2.66326 c -0.26126,-0.6529 -0.4552,-0.45897 -0.49447,0.49449 -0.0355,0.86277 0.15789,1.34617 0.42986,1.07421 0.27197,-0.27197 0.30104,-0.97788 0.0646,-1.5687 l 3e-5,0 z m -70.8339,-2.12818 c -0.59046,-0.19682 -1.4627,0.0313 -1.9383,0.50687 -0.60735,0.60735 -0.2878,0.71386 1.07357,0.35786 1.10671,-0.28941 1.47771,-0.6604 0.86473,-0.86473 l 0,0 z m 2.06823,-3.34311 c 1.23472,1.01855 1.27019,0.95158 0.38043,-0.71824 -1.20124,-2.25437 -1.13641,-2.25406 -3.04754,-0.0141 -1.26926,1.48765 -1.29284,1.62119 -0.12685,0.71823 1.20617,-0.93406 1.64726,-0.93183 2.79396,0.0141 l 0,0 z m 69.02503,-1.20522 c 0,-0.15531 -0.82868,-0.98399 -1.84151,-1.84151 l -1.84152,-1.55914 1.55914,1.84151 c 1.46521,1.73056 2.12389,2.2141 2.12389,1.55914 z m -74.75536,-3.19604 c -0.22704,-0.56268 -0.41281,-0.10231 -0.41281,1.02306 0,1.12537 0.18577,1.58575 0.41281,1.02306 0.22705,-0.56268 0.22705,-1.48344 0,-2.04612 z m 75.71647,0.7657 c -2.27476,-2.42138 -2.24243,-2.82194 0.47118,-5.83623 l 2.25073,-2.50013 -2.65996,2.40386 c -1.46298,1.32212 -2.65996,2.7716 -2.65996,3.22105 0,0.84352 3.24157,4.60571 3.96836,4.60571 0.22507,0 -0.39158,-0.85241 -1.37035,-1.89426 l 0,0 z m 18.42233,-4.8068 c -0.26126,-0.6529 -0.4552,-0.45897 -0.49447,0.49449 -0.0355,0.86277 0.15789,1.34617 0.42986,1.07421 0.27197,-0.27197 0.30104,-0.97788 0.0646,-1.5687 l 3e-5,0 z m 6.60235,-0.73055 c -0.78776,-0.45882 -1.46137,-1.46045 -1.49691,-2.22584 -0.0416,-0.89624 -0.21483,-1.01764 -0.4866,-0.34104 -0.48979,1.2194 1.14235,3.46242 2.49294,3.426 0.50757,-0.0137 0.27832,-0.40028 -0.50943,-0.85912 z m -97.19094,-1.79323 c 0.82032,-0.31227 0.61665,-0.48877 -0.61384,-0.53194 -1.2372,-0.0434 -1.83739,0.4054 -1.82898,1.36767 0.007,0.88346 0.24294,1.08729 0.61384,0.53194 0.33072,-0.49518 1.15376,-1.11063 1.82898,-1.36767 z m 90.78747,-19.75727 c 1.3665,-1.64652 -0.159,-2.3062 -2.91229,-1.2594 -1.83335,0.69703 -2.0517,1.02308 -1.09175,1.63022 1.69804,1.07395 2.89716,0.9629 4.00404,-0.37082 z m -109.20259,-1.30054 c 0.2782,-0.45015 0.13752,-0.81845 -0.31262,-0.81845 -0.45015,0 -1.04608,0.3683 -1.32428,0.81845 -0.27821,0.45015 -0.13753,0.81845 0.31262,0.81845 0.45014,0 1.04607,-0.3683 1.32428,-0.81845 z"
       style="fill:#d38d5f;fill-opacity:1;stroke:#550026;stroke-width:1.23699999;stroke-linecap:butt;stroke-linejoin:miter;stroke-miterlimit:4;stroke-opacity:1;stroke-dasharray:none"
       inkscape:export-filename="/Users/mpietal/Documents/development/GalCon/asset-source-files/path9669.png"
       inkscape:export-xdpi="180"
       inkscape:export-ydpi="180" />
    <path
       sodipodi:type="arc"
       style="fill:#9b9bff;fill-opacity:0.5;stroke:none"
       id="path9667"
       sodipodi:cx="-720"
       sodipodi:cy="660"
       sodipodi:rx="80"
       sodipodi:ry="80"
       d="m -640,660 a 80,80 0 1 1 -160,0 80,80 0 1 1 160,0 z"
       transform="matrix(1.2,0,0,1.0375,164,-21.75)"
       inkscape:export-filename="/Users/mpietal/Documents/development/GalCon/asset-source-files/path9669.png"
       inkscape:export-xdpi="180"
       inkscape:export-ydpi="180" />
    <path
       transform="matrix(0.925,0,0,0.675,-38,190.5)"
       d="m -640,660 a 80,80 0 1 1 -160,0 80,80 0 1 1 160,0 z"
       sodipodi:ry="80"
       sodipodi:rx="80"
       sodipodi:cy="660"
       sodipodi:cx="-720"
       id="path9669"
       style="fill:#9b9bff;fill-opacity:0.6;stroke:none"
       sodipodi:type="arc"
       inkscape:export-xdpi="180"
       inkscape:export-ydpi="180" />
    <path
       d="m -600,680 a 100,100 0 1 1 -200,0 100,100 0 1 1 200,0 z"
       sodipodi:ry="100"
       sodipodi:rx="100"
       sodipodi:cy="680"
       sodipodi:cx="-700"
       id="path9731"
       style="fill:#2b0000;fill-opacity:0;stroke:none"
       sodipodi:type="arc"
       transform="translate(0,-300)" />
    <path
       d="m -290,680 a 110,110 0 1 1 -220,0 110,110 0 1 1 220,0 z"
       sodipodi:ry="110"
       sodipodi:rx="110"
       sodipodi:cy="680"
       sodipodi:cx="-400"
       id="path9771"
       style="fill:#c8c8c8;fill-opacity:1;stroke:none;filter:url(#filter10009)"
       sodipodi:type="arc"
       transform="translate(0,138)"
       inkscape:export-filename="/Users/mpietal/Documents/development/GalCon/asset-source-files/planet2-touch.png"
       inkscape:export-xdpi="123.81687"
       inkscape:export-ydpi="123.81687" />
    <path
       d="m -242.37286,382.54236 a 160.16949,27.966103 0 1 1 -320.10461,-1.51238"
       sodipodi:ry="27.966103"
       sodipodi:rx="160.16949"
       sodipodi:cy="382.54236"
       sodipodi:cx="-402.54236"
       id="path10035"
       style="fill:none;stroke:#cea62c;stroke-width:6;stroke-miterlimit:4;stroke-opacity:1;stroke-dasharray:none"
       sodipodi:type="arc"
       sodipodi:start="0"
       sodipodi:end="3.1956979"
       sodipodi:open="true"
       transform="matrix(0.98480776,-0.17364818,0.17364818,0.98480776,-72.862416,-63.844416)" />
    <path
       d="m -201.6949,384.23727 a 207.62712,33.050846 0 0 1 -415.22863,0.51914"
       sodipodi:ry="33.050846"
       sodipodi:rx="207.62712"
       sodipodi:cy="384.23727"
       sodipodi:cx="-409.32202"
       id="path10047"
       style="fill:none;stroke:#e4912c;stroke-width:6;stroke-linecap:butt;stroke-linejoin:miter;stroke-miterlimit:4;stroke-opacity:1;stroke-dasharray:none"
       sodipodi:type="arc"
       sodipodi:start="0"
       sodipodi:end="3.1258847"
       sodipodi:open="true"
       transform="matrix(0.98480776,-0.17364818,0.17364818,0.98480776,-64.983954,-65.233602)" />
  </g>
  <g
     inkscape:groupmode="layer"
     id="layer7"
     inkscape:label="Planet"
     style="display:inline">
    <path
       sodipodi:type="arc"
       style="fill:#c8c8c8;fill-opacity:1;stroke:#ffffff;stroke-width:5;stroke-miterlimit:4;stroke-opacity:1;stroke-dasharray:none;filter:url(#filter10053)"
       id="path9769"
       sodipodi:cx="-400"
       sodipodi:cy="680"
       sodipodi:rx="95"
       sodipodi:ry="95"
       d="m -305,680 a 95,95 0 1 1 -190,0 95,95 0 1 1 190,0 z"
       transform="translate(0,135)"
       inkscape:export-filename="/Users/mpietal/Documents/development/GalCon/asset-source-files/planet2.png"
       inkscape:export-xdpi="123.81687"
       inkscape:export-ydpi="123.81687" />
  </g>
  <g
     inkscape:groupmode="layer"
     id="layer8"
     inkscape:label="Planet-Highlight"
     style="display:inline">
    <path
       transform="translate(1,134)"
       d="m -305,680 a 95,95 0 1 1 -190,0 95,95 0 1 1 190,0 z"
       sodipodi:ry="95"
       sodipodi:rx="95"
       sodipodi:cy="680"
       sodipodi:cx="-400"
       id="path10023"
       style="fill:url(#radialGradient10062);fill-opacity:1;stroke:#ffffff;stroke-width:5;stroke-miterlimit:4;stroke-opacity:1;stroke-dasharray:none;filter:url(#filter9901)"
       sodipodi:type="arc"
       inkscape:export-filename="/Users/mpietal/Documents/development/GalCon/asset-source-files/planet2.png"
       inkscape:export-xdpi="123.81687"
       inkscape:export-ydpi="123.81687" />
  </g>
</svg>
