<?xml version="1.0" encoding="UTF-8" standalone="no"?>
<!-- Created with Inkscape (http://www.inkscape.org/) -->

<svg
   xmlns:dc="http://purl.org/dc/elements/1.1/"
   xmlns:cc="http://creativecommons.org/ns#"
   xmlns:rdf="http://www.w3.org/1999/02/22-rdf-syntax-ns#"
   xmlns:svg="http://www.w3.org/2000/svg"
   xmlns="http://www.w3.org/2000/svg"
   xmlns:sodipodi="http://sodipodi.sourceforge.net/DTD/sodipodi-0.dtd"
   xmlns:inkscape="http://www.inkscape.org/namespaces/inkscape"
   width="146.82677"
   height="75.611885"
   id="svg2"
   version="1.1"
   inkscape:version="0.48.2 r9819"
   sodipodi:docname="ship_selection_dialog.svg"
   inkscape:export-filename="/Users/mpietal/Documents/development/GalCon/asset-source-files/ship_selection_dialog.png"
   inkscape:export-xdpi="90"
   inkscape:export-ydpi="90">
  <defs
     id="defs4" />
  <sodipodi:namedview
     id="base"
     pagecolor="#ffffff"
     bordercolor="#666666"
     borderopacity="1.0"
     inkscape:pageopacity="0.0"
     inkscape:pageshadow="2"
     inkscape:zoom="0.67087169"
     inkscape:cx="83.751005"
     inkscape:cy="-30.997137"
     inkscape:document-units="px"
     inkscape:current-layer="layer1"
     showgrid="false"
     fit-margin-top="0"
     fit-margin-left="0"
     fit-margin-right="0"
     fit-margin-bottom="0"
     inkscape:window-width="1293"
     inkscape:window-height="937"
     inkscape:window-x="40"
     inkscape:window-y="28"
     inkscape:window-maximized="0" />
  <metadata
     id="metadata7">
    <rdf:RDF>
      <cc:Work
         rdf:about="">
        <dc:format>image/svg+xml</dc:format>
        <dc:type
           rdf:resource="http://purl.org/dc/dcmitype/StillImage" />
        <dc:title></dc:title>
      </cc:Work>
    </rdf:RDF>
  </metadata>
  <g
     inkscape:label="Layer 1"
     inkscape:groupmode="layer"
     id="layer1"
     transform="translate(-288.29624,-419.57207)">
    <rect
       style="fill:#ececec;fill-rule:evenodd;stroke:#000000;stroke-width:1.14366996px;stroke-linecap:butt;stroke-linejoin:miter;stroke-opacity:1"
       id="rect2987"
       width="620.08875"
       height="489.3681"
       x="64.095711"
       y="180.36235"
       ry="79.936615" />
    <path
       style="fill:#ff0000"
       d="m 548.19708,229.69541 78.77447,79.32638 -80.04555,-17.1437 -75.9399,14.49116 z"
       id="rect2995"
       inkscape:connector-curvature="0"
       sodipodi:nodetypes="ccccc" />
    <path
       style="fill:none"
       d="m 283.2076,455.1683 0,-36.60838 37.6376,0.006 37.6376,0.006 -30.55726,30.56861 c -16.80649,16.81273 -33.74341,33.28359 -37.6376,36.6019 l -7.08034,6.0333 0,-36.60838 z"
       id="path3821"
       inkscape:connector-curvature="0" />
    <path
       style="fill:none"
       d="m 430.0315,494.44307 c -2.45948,-0.62123 -8.49641,-1.92767 -13.41538,-2.9032 -4.91897,-0.97553 -10.95589,-2.29036 -13.41538,-2.92185 -2.45949,-0.63148 -8.49641,-1.95045 -13.41538,-2.93105 -4.91898,-0.98059 -11.96205,-2.54492 -15.65128,-3.47628 -11.72307,-2.95955 -22.47056,-2.19946 -48.44444,3.42614 -3.27931,0.71025 -10.32239,2.04454 -15.65128,2.96508 -5.32888,0.92054 -12.26957,2.35339 -15.42374,3.18412 -3.15418,0.83073 -5.99505,1.25023 -6.31305,0.93223 -0.54561,-0.54562 40.91821,-42.82366 62.36607,-63.59073 l 9.8687,-9.55546 37.59813,37.5106 c 20.67898,20.63083 37.32154,37.73094 36.98348,38.00025 -0.33806,0.26931 -2.62696,-0.0186 -5.08645,-0.63985 z"
       id="path3823"
       inkscape:connector-curvature="0" />
    <path
       style="fill:#ffffff;fill-opacity:0"
       d="m 283.2076,455.1683 0,-36.60838 37.6376,0.006 37.6376,0.006 -30.55726,30.56861 c -16.80649,16.81273 -33.74341,33.28359 -37.6376,36.6019 l -7.08034,6.0333 0,-36.60838 z"
       id="path3825"
       inkscape:connector-curvature="0" />
    <path
       style="fill:#ffffff;fill-opacity:0"
       d="m 283.2076,455.1683 0,-36.60838 37.6376,0.006 37.6376,0.006 -30.55726,30.56861 c -16.80649,16.81273 -33.74341,33.28359 -37.6376,36.6019 l -7.08034,6.0333 0,-36.60838 z"
       id="path3827"
       inkscape:connector-curvature="0" />
    <path
       style="fill:#ffffff;fill-opacity:0"
       d="m 430.0315,494.44307 c -2.45948,-0.62123 -8.49641,-1.92767 -13.41538,-2.9032 -4.91897,-0.97553 -10.95589,-2.29036 -13.41538,-2.92185 -2.45949,-0.63148 -8.49641,-1.95045 -13.41538,-2.93105 -4.91898,-0.98059 -11.96205,-2.54492 -15.65128,-3.47628 -11.72307,-2.95955 -22.47056,-2.19946 -48.44444,3.42614 -3.27931,0.71025 -10.32239,2.04454 -15.65128,2.96508 -5.32888,0.92054 -12.26957,2.35339 -15.42374,3.18412 -3.15418,0.83073 -5.99505,1.25023 -6.31305,0.93223 -0.54561,-0.54562 40.91821,-42.82366 62.36607,-63.59073 l 9.8687,-9.55546 37.59813,37.5106 c 20.67898,20.63083 37.32154,37.73094 36.98348,38.00025 -0.33806,0.26931 -2.62696,-0.0186 -5.08645,-0.63985 z"
       id="path3829"
       inkscape:connector-curvature="0" />
    <rect
       style="fill:#e6e6e6;fill-opacity:0"
       id="rect3831"
       width="335.38455"
       height="149.0598"
       x="-192.28714"
       y="-204.62054"
       transform="translate(288.29624,419.57207)"
       ry="61.114517" />
    <path
       style="fill:#ffffff;fill-opacity:0"
       d="m -181.7245,130.35311 c -18.91814,-6.5476 -32.92758,-21.27891 -38.69022,-40.683825 -2.00037,-6.735953 -2.29891,-25.203896 -2.28353,-141.259664 0.0141,-106.614871 0.41875,-135.012031 2.00856,-140.963621 6.13558,-22.96908 23.91655,-39.56395 47.10334,-43.96123 10.87805,-2.06298 507.97033,-2.06298 518.84839,0 23.18679,4.39728 40.96776,20.99215 47.10334,43.96123 1.5898,5.95159 1.99442,34.34875 2.00855,140.963621 0.0191,143.91351 0.18505,140.599448 -7.74081,154.572939 -4.38684,7.73413 -14.14404,17.67202 -21.71048,22.11252 -14.43664,8.47239 1.47189,8.0218 -279.830097,7.92592 -241.899113,-0.0824 -259.865913,-0.26209 -266.817043,-2.66789 l 0,0 z M 265.4549,65.293104 c 29.51384,-0.443304 57.28307,-1.182566 61.7094,-1.642803 l 8.04787,-0.836792 -0.82121,-39.467935 c -0.45167,-21.7073695 -1.05475,-39.691628 -1.34018,-39.965034 -0.91769,-0.87899 -154.53926,2.929055 -155.46393,3.853718 -0.49028,0.490287 -0.4318,18.8367315 0.12998,40.769882 l 1.02135,39.87846 16.52762,-0.89175 c 9.09017,-0.490451 40.67529,-1.254443 70.18913,-1.697746 l -3e-5,0 z m 68.06035,-182.199254 c -3.30102,-3.89418 -21.08375,-22.11198 -39.51717,-40.48398 l -33.51531,-33.40364 -38.87803,37.82132 c -21.38291,20.80173 -38.87803,38.42694 -38.87803,39.16715 0,0.74021 1.84462,0.98549 4.09915,0.54508 2.25453,-0.44042 19.34247,-3.66888 37.97322,-7.17436 l 33.87408,-6.37361 38.41992,8.33961 c 21.13096,4.58678 39.32084,8.40781 40.42198,8.49119 1.10112,0.0834 -0.69879,-3.03457 -3.99981,-6.92876 l 0,0 z"
       id="path3833"
       inkscape:connector-curvature="0"
       transform="translate(288.29624,419.57207)" />
    <path
       style="fill:#ffffff;fill-opacity:0"
       d="m -181.7245,130.35311 c -18.91814,-6.5476 -32.92758,-21.27891 -38.69022,-40.683825 -2.00037,-6.735953 -2.29891,-25.203896 -2.28353,-141.259664 0.0141,-106.614871 0.41875,-135.012031 2.00856,-140.963621 6.13558,-22.96908 23.91655,-39.56395 47.10334,-43.96123 10.87805,-2.06298 507.97033,-2.06298 518.84839,0 23.18679,4.39728 40.96776,20.99215 47.10334,43.96123 1.5898,5.95159 1.99442,34.34875 2.00855,140.963621 0.0191,143.91351 0.18505,140.599448 -7.74081,154.572939 -4.38684,7.73413 -14.14404,17.67202 -21.71048,22.11252 -14.43664,8.47239 1.47189,8.0218 -279.830097,7.92592 -241.899113,-0.0824 -259.865913,-0.26209 -266.817043,-2.66789 l 0,0 z M 265.4549,65.293104 c 29.51384,-0.443304 57.28307,-1.182566 61.7094,-1.642803 l 8.04787,-0.836792 -0.82121,-39.467935 c -0.45167,-21.7073695 -1.05475,-39.691628 -1.34018,-39.965034 -0.91769,-0.87899 -154.53926,2.929055 -155.46393,3.853718 -0.49028,0.490287 -0.4318,18.8367315 0.12998,40.769882 l 1.02135,39.87846 16.52762,-0.89175 c 9.09017,-0.490451 40.67529,-1.254443 70.18913,-1.697746 l -3e-5,0 z m 68.06035,-182.199254 c -3.30102,-3.89418 -21.08375,-22.11198 -39.51717,-40.48398 l -33.51531,-33.40364 -38.87803,37.82132 c -21.38291,20.80173 -38.87803,38.42694 -38.87803,39.16715 0,0.74021 1.84462,0.98549 4.09915,0.54508 2.25453,-0.44042 19.34247,-3.66888 37.97322,-7.17436 l 33.87408,-6.37361 38.41992,8.33961 c 21.13096,4.58678 39.32084,8.40781 40.42198,8.49119 1.10112,0.0834 -0.69879,-3.03457 -3.99981,-6.92876 l 0,0 z"
       id="path3835"
       inkscape:connector-curvature="0"
       transform="translate(288.29624,419.57207)" />
    <rect
       style="fill:#ffffff;fill-opacity:1;stroke:#000000;stroke-width:1.89999998;stroke-miterlimit:4;stroke-opacity:1;stroke-dasharray:none"
       id="rect3837"
       width="269.79825"
       height="143.09741"
       x="127.31166"
       y="225.38571"
       ry="20.868372" />
    <text
       xml:space="preserve"
       style="font-size:40px;font-style:normal;font-weight:normal;line-height:125%;letter-spacing:0px;word-spacing:0px;fill:#000000;fill-opacity:1;stroke:none;font-family:Sans"
       x="-169.92818"
       y="51.762318"
       id="text3839"
       sodipodi:linespacing="125%"
       transform="translate(288.29624,419.57207)"><tspan
         sodipodi:role="line"
         id="tspan3841"
         x="-169.92818"
         y="51.762318">MAX:</tspan></text>
    <rect
       style="fill:#ffffff;fill-opacity:1;stroke:#000000;stroke-opacity:1"
       id="rect3004"
       width="256.38284"
       height="114.77605"
       x="-177.38116"
       y="108.40504"
       transform="translate(288.29624,419.57207)"
       ry="35.029053" />
    <rect
       ry="35.029053"
       y="527.97711"
       x="383.69452"
       height="114.77605"
       width="256.38284"
       id="rect3774"
       style="fill:#ffffff;fill-opacity:1;stroke:#000000;stroke-opacity:1" />
    <path
       sodipodi:nodetypes="ccccc"
       inkscape:connector-curvature="0"
       id="path3776"
       d="m 548.19708,472.98757 78.77447,-79.32638 -80.04555,17.1437 -75.9399,-14.49116 z"
       style="fill:#ff0000" />
    <text
       xml:space="preserve"
       style="font-size:40px;font-style:normal;font-weight:normal;line-height:125%;letter-spacing:0px;word-spacing:0px;fill:#000000;fill-opacity:1;stroke:none;font-family:Sans"
       x="169.0484"
       y="601.01642"
       id="text3778"
       sodipodi:linespacing="125%"><tspan
         sodipodi:role="line"
         id="tspan3780"
         x="169.0484"
         y="601.01642">Cancel</tspan></text>
    <text
       xml:space="preserve"
       style="font-size:40px;font-style:normal;font-weight:normal;line-height:125%;letter-spacing:0px;word-spacing:0px;fill:#000000;fill-opacity:1;stroke:none;font-family:Sans"
       x="480.58337"
       y="601.01642"
       id="text3782"
       sodipodi:linespacing="125%"><tspan
         sodipodi:role="line"
         id="tspan3784"
         x="480.58337"
         y="601.01642">OK</tspan></text>
  </g>
</svg>
